solid CATIA STL
  facet normal  -0.000000e+000  0.000000e+000  1.000000e+000
    outer loop
      vertex -2.235111e+000  3.664278e-001  4.000000e+000
      vertex -7.390089e+000  2.630436e-001  4.000000e+000
      vertex -1.872698e+000  2.551500e-001  4.000000e+000
    endloop
  endfacet
  facet normal  0.000000e+000  -0.000000e+000  1.000000e+000
    outer loop
      vertex -7.071068e+000 -7.106781e-002  4.000000e+000
      vertex -6.736957e+000 -3.900892e-001  4.000000e+000
      vertex  6.825236e+000 -3.086355e-001  4.000000e+000
    endloop
  endfacet
  facet normal  0.000000e+000  -0.000000e+000  1.000000e+000
    outer loop
      vertex -7.071068e+000 -7.106781e-002  4.000000e+000
      vertex  6.825236e+000 -3.086355e-001  4.000000e+000
      vertex  7.141428e+000 -2.664535e-015  4.000000e+000
    endloop
  endfacet
  facet normal  0.000000e+000  0.000000e+000  1.000000e+000
    outer loop
      vertex -7.071068e+000 -7.106781e-002  4.000000e+000
      vertex  7.141428e+000 -2.664535e-015  4.000000e+000
      vertex -7.105427e-015 -2.211592e-016  4.000000e+000
    endloop
  endfacet
  facet normal  0.000000e+000  0.000000e+000  1.000000e+000
    outer loop
      vertex -7.071068e+000 -7.106781e-002  4.000000e+000
      vertex -7.105427e-015 -2.211592e-016  4.000000e+000
      vertex -3.789724e-001  1.026610e-002  4.000000e+000
    endloop
  endfacet
  facet normal  0.000000e+000  0.000000e+000  1.000000e+000
    outer loop
      vertex -7.071068e+000 -7.106781e-002  4.000000e+000
      vertex -3.789724e-001  1.026610e-002  4.000000e+000
      vertex -7.568331e-001  4.103430e-002  4.000000e+000
    endloop
  endfacet
  facet normal  0.000000e+000  0.000000e+000  9.999999e-001
    outer loop
      vertex -7.071068e+000 -7.106781e-002  4.000000e+000
      vertex -7.568331e-001  4.103430e-002  4.000000e+000
      vertex -1.132474e+000  9.221435e-002  4.000000e+000
    endloop
  endfacet
  facet normal  0.000000e+000  0.000000e+000  1.000000e+000
    outer loop
      vertex -7.071068e+000 -7.106781e-002  4.000000e+000
      vertex -1.132474e+000  9.221435e-002  4.000000e+000
      vertex -1.504793e+000  1.636561e-001  4.000000e+000
    endloop
  endfacet
  facet normal  0.000000e+000  0.000000e+000  1.000000e+000
    outer loop
      vertex -7.071068e+000 -7.106781e-002  4.000000e+000
      vertex -1.504793e+000  1.636561e-001  4.000000e+000
      vertex -1.872698e+000  2.551500e-001  4.000000e+000
    endloop
  endfacet
  facet normal  0.000000e+000  0.000000e+000  1.000000e+000
    outer loop
      vertex -7.071068e+000 -7.106781e-002  4.000000e+000
      vertex -1.872698e+000  2.551500e-001  4.000000e+000
      vertex -7.390089e+000  2.630436e-001  4.000000e+000
    endloop
  endfacet
  facet normal  -0.000000e+000  0.000000e+000  9.999999e-001
    outer loop
      vertex -7.000000e+000  7.000000e+000  4.000000e+000
      vertex -1.000000e+001  7.000000e+000  4.000000e+000
      vertex -6.989734e+000  6.621027e+000  4.000000e+000
    endloop
  endfacet
  facet normal  0.000000e+000  0.000000e+000  1.000000e+000
    outer loop
      vertex -6.989734e+000  6.621027e+000  4.000000e+000
      vertex -1.000000e+001  7.000000e+000  4.000000e+000
      vertex -9.989329e+000  6.538166e+000  4.000000e+000
    endloop
  endfacet
  facet normal  -0.000000e+000  0.000000e+000  1.000000e+000
    outer loop
      vertex -6.989734e+000  6.621027e+000  4.000000e+000
      vertex -9.989329e+000  6.538166e+000  4.000000e+000
      vertex -6.958966e+000  6.243167e+000  4.000000e+000
    endloop
  endfacet
  facet normal  0.000000e+000  0.000000e+000  1.000000e+000
    outer loop
      vertex -6.958966e+000  6.243167e+000  4.000000e+000
      vertex -9.989329e+000  6.538166e+000  4.000000e+000
      vertex -9.957342e+000  6.077316e+000  4.000000e+000
    endloop
  endfacet
  facet normal  -0.000000e+000  0.000000e+000  1.000000e+000
    outer loop
      vertex -6.958966e+000  6.243167e+000  4.000000e+000
      vertex -9.957342e+000  6.077316e+000  4.000000e+000
      vertex -6.907786e+000  5.867526e+000  4.000000e+000
    endloop
  endfacet
  facet normal  0.000000e+000  0.000000e+000  1.000000e+000
    outer loop
      vertex -6.907786e+000  5.867526e+000  4.000000e+000
      vertex -9.957342e+000  6.077316e+000  4.000000e+000
      vertex -9.904104e+000  5.618436e+000  4.000000e+000
    endloop
  endfacet
  facet normal  -0.000000e+000  0.000000e+000  9.999999e-001
    outer loop
      vertex -6.907786e+000  5.867526e+000  4.000000e+000
      vertex -9.904104e+000  5.618436e+000  4.000000e+000
      vertex -6.836344e+000  5.495207e+000  4.000000e+000
    endloop
  endfacet
  facet normal  0.000000e+000  0.000000e+000  1.000000e+000
    outer loop
      vertex -6.836344e+000  5.495207e+000  4.000000e+000
      vertex -9.904104e+000  5.618436e+000  4.000000e+000
      vertex -6.744850e+000  5.127302e+000  4.000000e+000
    endloop
  endfacet
  facet normal  0.000000e+000  0.000000e+000  1.000000e+000
    outer loop
      vertex -6.744850e+000  5.127302e+000  4.000000e+000
      vertex -9.904104e+000  5.618436e+000  4.000000e+000
      vertex -9.829731e+000  5.162505e+000  4.000000e+000
    endloop
  endfacet
  facet normal  0.000000e+000  0.000000e+000  1.000000e+000
    outer loop
      vertex -6.744850e+000  5.127302e+000  4.000000e+000
      vertex -9.829731e+000  5.162505e+000  4.000000e+000
      vertex -6.633572e+000  4.764889e+000  4.000000e+000
    endloop
  endfacet
  facet normal  0.000000e+000  0.000000e+000  1.000000e+000
    outer loop
      vertex -6.633572e+000  4.764889e+000  4.000000e+000
      vertex -9.829731e+000  5.162505e+000  4.000000e+000
      vertex -9.734381e+000  4.710495e+000  4.000000e+000
    endloop
  endfacet
  facet normal  -0.000000e+000  0.000000e+000  1.000000e+000
    outer loop
      vertex -6.633572e+000  4.764889e+000  4.000000e+000
      vertex -9.734381e+000  4.710495e+000  4.000000e+000
      vertex -6.502837e+000  4.409033e+000  4.000000e+000
    endloop
  endfacet
  facet normal  0.000000e+000  0.000000e+000  1.000000e+000
    outer loop
      vertex -6.502837e+000  4.409033e+000  4.000000e+000
      vertex -9.734381e+000  4.710495e+000  4.000000e+000
      vertex -9.618257e+000  4.263370e+000  4.000000e+000
    endloop
  endfacet
  facet normal  -0.000000e+000  0.000000e+000  1.000000e+000
    outer loop
      vertex -6.502837e+000  4.409033e+000  4.000000e+000
      vertex -9.618257e+000  4.263370e+000  4.000000e+000
      vertex -6.353028e+000  4.060776e+000  4.000000e+000
    endloop
  endfacet
  facet normal  0.000000e+000  0.000000e+000  9.999999e-001
    outer loop
      vertex -6.353028e+000  4.060776e+000  4.000000e+000
      vertex -9.618257e+000  4.263370e+000  4.000000e+000
      vertex -9.481606e+000  3.822086e+000  4.000000e+000
    endloop
  endfacet
  facet normal  -0.000000e+000  0.000000e+000  1.000000e+000
    outer loop
      vertex -6.353028e+000  4.060776e+000  4.000000e+000
      vertex -9.481606e+000  3.822086e+000  4.000000e+000
      vertex -6.184584e+000  3.721141e+000  4.000000e+000
    endloop
  endfacet
  facet normal  0.000000e+000  0.000000e+000  1.000000e+000
    outer loop
      vertex -6.184584e+000  3.721141e+000  4.000000e+000
      vertex -9.481606e+000  3.822086e+000  4.000000e+000
      vertex -5.998000e+000  3.391123e+000  4.000000e+000
    endloop
  endfacet
  facet normal  0.000000e+000  0.000000e+000  1.000000e+000
    outer loop
      vertex -5.998000e+000  3.391123e+000  4.000000e+000
      vertex -9.481606e+000  3.822086e+000  4.000000e+000
      vertex -9.324722e+000  3.387583e+000  4.000000e+000
    endloop
  endfacet
  facet normal  -0.000000e+000  0.000000e+000  1.000000e+000
    outer loop
      vertex -5.998000e+000  3.391123e+000  4.000000e+000
      vertex -9.324722e+000  3.387583e+000  4.000000e+000
      vertex -5.793823e+000  3.071691e+000  4.000000e+000
    endloop
  endfacet
  facet normal  0.000000e+000  0.000000e+000  1.000000e+000
    outer loop
      vertex -5.793823e+000  3.071691e+000  4.000000e+000
      vertex -9.324722e+000  3.387583e+000  4.000000e+000
      vertex -9.147939e+000  2.960790e+000  4.000000e+000
    endloop
  endfacet
  facet normal  -0.000000e+000  0.000000e+000  1.000000e+000
    outer loop
      vertex -5.793823e+000  3.071691e+000  4.000000e+000
      vertex -9.147939e+000  2.960790e+000  4.000000e+000
      vertex -5.572651e+000  2.763781e+000  4.000000e+000
    endloop
  endfacet
  facet normal  0.000000e+000  0.000000e+000  1.000000e+000
    outer loop
      vertex -5.572651e+000  2.763781e+000  4.000000e+000
      vertex -9.147939e+000  2.960790e+000  4.000000e+000
      vertex -8.951632e+000  2.542616e+000  4.000000e+000
    endloop
  endfacet
  facet normal  -0.000000e+000  0.000000e+000  1.000000e+000
    outer loop
      vertex -5.572651e+000  2.763781e+000  4.000000e+000
      vertex -8.951632e+000  2.542616e+000  4.000000e+000
      vertex -5.335135e+000  2.468296e+000  4.000000e+000
    endloop
  endfacet
  facet normal  0.000000e+000  0.000000e+000  1.000000e+000
    outer loop
      vertex -5.335135e+000  2.468296e+000  4.000000e+000
      vertex -8.951632e+000  2.542616e+000  4.000000e+000
      vertex -5.081968e+000  2.186104e+000  4.000000e+000
    endloop
  endfacet
  facet normal  0.000000e+000  0.000000e+000  1.000000e+000
    outer loop
      vertex -5.081968e+000  2.186104e+000  4.000000e+000
      vertex -8.951632e+000  2.542616e+000  4.000000e+000
      vertex -8.736224e+000  2.133955e+000  4.000000e+000
    endloop
  endfacet
  facet normal  -0.000000e+000  0.000000e+000  1.000000e+000
    outer loop
      vertex -5.081968e+000  2.186104e+000  4.000000e+000
      vertex -8.736224e+000  2.133955e+000  4.000000e+000
      vertex -4.813896e+000  1.918032e+000  4.000000e+000
    endloop
  endfacet
  facet normal  0.000000e+000  0.000000e+000  1.000000e+000
    outer loop
      vertex -4.813896e+000  1.918032e+000  4.000000e+000
      vertex -8.736224e+000  2.133955e+000  4.000000e+000
      vertex -8.502172e+000  1.735678e+000  4.000000e+000
    endloop
  endfacet
  facet normal  -0.000000e+000  0.000000e+000  1.000000e+000
    outer loop
      vertex -4.813896e+000  1.918032e+000  4.000000e+000
      vertex -8.502172e+000  1.735678e+000  4.000000e+000
      vertex -4.531704e+000  1.664866e+000  4.000000e+000
    endloop
  endfacet
  facet normal  0.000000e+000  0.000000e+000  9.999999e-001
    outer loop
      vertex -4.531704e+000  1.664866e+000  4.000000e+000
      vertex -8.502172e+000  1.735678e+000  4.000000e+000
      vertex -4.236219e+000  1.427348e+000  4.000000e+000
    endloop
  endfacet
  facet normal  0.000000e+000  0.000000e+000  1.000000e+000
    outer loop
      vertex -4.236219e+000  1.427348e+000  4.000000e+000
      vertex -8.502172e+000  1.735678e+000  4.000000e+000
      vertex -8.249975e+000  1.348636e+000  4.000000e+000
    endloop
  endfacet
  facet normal  -0.000000e+000  0.000000e+000  9.999999e-001
    outer loop
      vertex -4.236219e+000  1.427348e+000  4.000000e+000
      vertex -8.249975e+000  1.348636e+000  4.000000e+000
      vertex -3.928309e+000  1.206177e+000  4.000000e+000
    endloop
  endfacet
  facet normal  0.000000e+000  0.000000e+000  1.000000e+000
    outer loop
      vertex -3.928309e+000  1.206177e+000  4.000000e+000
      vertex -8.249975e+000  1.348636e+000  4.000000e+000
      vertex -7.980172e+000  9.736536e-001  4.000000e+000
    endloop
  endfacet
  facet normal  0.000000e+000  0.000000e+000  1.000000e+000
    outer loop
      vertex -3.928309e+000  1.206177e+000  4.000000e+000
      vertex -7.980172e+000  9.736536e-001  4.000000e+000
      vertex -3.608877e+000  1.002000e+000  4.000000e+000
    endloop
  endfacet
  facet normal  -0.000000e+000  0.000000e+000  1.000000e+000
    outer loop
      vertex -3.608877e+000  1.002000e+000  4.000000e+000
      vertex -7.980172e+000  9.736536e-001  4.000000e+000
      vertex -3.278859e+000  8.154157e-001  4.000000e+000
    endloop
  endfacet
  facet normal  0.000000e+000  0.000000e+000  1.000000e+000
    outer loop
      vertex -3.278859e+000  8.154157e-001  4.000000e+000
      vertex -7.980172e+000  9.736536e-001  4.000000e+000
      vertex -7.693340e+000  6.115320e-001  4.000000e+000
    endloop
  endfacet
  facet normal  0.000000e+000  0.000000e+000  1.000000e+000
    outer loop
      vertex -3.278859e+000  8.154157e-001  4.000000e+000
      vertex -7.693340e+000  6.115320e-001  4.000000e+000
      vertex -2.939224e+000  6.469721e-001  4.000000e+000
    endloop
  endfacet
  facet normal  -0.000000e+000  0.000000e+000  9.999999e-001
    outer loop
      vertex -2.939224e+000  6.469721e-001  4.000000e+000
      vertex -7.693340e+000  6.115320e-001  4.000000e+000
      vertex -2.590967e+000  4.971630e-001  4.000000e+000
    endloop
  endfacet
  facet normal  0.000000e+000  0.000000e+000  9.999999e-001
    outer loop
      vertex -2.590967e+000  4.971630e-001  4.000000e+000
      vertex -7.693340e+000  6.115320e-001  4.000000e+000
      vertex -7.390089e+000  2.630436e-001  4.000000e+000
    endloop
  endfacet
  facet normal  0.000000e+000  0.000000e+000  1.000000e+000
    outer loop
      vertex -2.590967e+000  4.971630e-001  4.000000e+000
      vertex -7.390089e+000  2.630436e-001  4.000000e+000
      vertex -2.235111e+000  3.664278e-001  4.000000e+000
    endloop
  endfacet
  facet normal  -0.000000e+000  0.000000e+000  1.000000e+000
    outer loop
      vertex  6.825236e+000 -3.086355e-001  4.000000e+000
      vertex -6.736957e+000 -3.900892e-001  4.000000e+000
      vertex  6.495718e+000 -6.030020e-001  4.000000e+000
    endloop
  endfacet
  facet normal  0.000000e+000  0.000000e+000  1.000000e+000
    outer loop
      vertex  6.495718e+000 -6.030020e-001  4.000000e+000
      vertex -6.736957e+000 -3.900892e-001  4.000000e+000
      vertex -6.388468e+000 -6.933397e-001  4.000000e+000
    endloop
  endfacet
  facet normal  -0.000000e+000  0.000000e+000  9.999999e-001
    outer loop
      vertex  6.495718e+000 -6.030020e-001  4.000000e+000
      vertex -6.388468e+000 -6.933397e-001  4.000000e+000
      vertex  6.153519e+000 -8.825250e-001  4.000000e+000
    endloop
  endfacet
  facet normal  0.000000e+000  0.000000e+000  1.000000e+000
    outer loop
      vertex  6.153519e+000 -8.825250e-001  4.000000e+000
      vertex -6.388468e+000 -6.933397e-001  4.000000e+000
      vertex -6.026346e+000 -9.801723e-001  4.000000e+000
    endloop
  endfacet
  facet normal  -0.000000e+000  0.000000e+000  1.000000e+000
    outer loop
      vertex  6.153519e+000 -8.825250e-001  4.000000e+000
      vertex -6.026346e+000 -9.801723e-001  4.000000e+000
      vertex  5.799306e+000 -1.146659e+000  4.000000e+000
    endloop
  endfacet
  facet normal  0.000000e+000  0.000000e+000  1.000000e+000
    outer loop
      vertex  5.799306e+000 -1.146659e+000  4.000000e+000
      vertex -6.026346e+000 -9.801723e-001  4.000000e+000
      vertex -5.651364e+000 -1.249975e+000  4.000000e+000
    endloop
  endfacet
  facet normal  -0.000000e+000  0.000000e+000  1.000000e+000
    outer loop
      vertex  5.799306e+000 -1.146659e+000  4.000000e+000
      vertex -5.651364e+000 -1.249975e+000  4.000000e+000
      vertex  5.433771e+000 -1.394887e+000  4.000000e+000
    endloop
  endfacet
  facet normal  0.000000e+000  0.000000e+000  1.000000e+000
    outer loop
      vertex  5.433771e+000 -1.394887e+000  4.000000e+000
      vertex -5.651364e+000 -1.249975e+000  4.000000e+000
      vertex -5.264322e+000 -1.502171e+000  4.000000e+000
    endloop
  endfacet
  facet normal  -0.000000e+000  0.000000e+000  1.000000e+000
    outer loop
      vertex  5.433771e+000 -1.394887e+000  4.000000e+000
      vertex -5.264322e+000 -1.502171e+000  4.000000e+000
      vertex  5.057627e+000 -1.626726e+000  4.000000e+000
    endloop
  endfacet
  facet normal  0.000000e+000  0.000000e+000  1.000000e+000
    outer loop
      vertex  5.057627e+000 -1.626726e+000  4.000000e+000
      vertex -5.264322e+000 -1.502171e+000  4.000000e+000
      vertex -4.866045e+000 -1.736224e+000  4.000000e+000
    endloop
  endfacet
  facet normal  -0.000000e+000  0.000000e+000  1.000000e+000
    outer loop
      vertex  5.057627e+000 -1.626726e+000  4.000000e+000
      vertex -4.866045e+000 -1.736224e+000  4.000000e+000
      vertex  4.671609e+000 -1.841723e+000  4.000000e+000
    endloop
  endfacet
  facet normal  0.000000e+000  0.000000e+000  1.000000e+000
    outer loop
      vertex  4.671609e+000 -1.841723e+000  4.000000e+000
      vertex -4.866045e+000 -1.736224e+000  4.000000e+000
      vertex  4.276471e+000 -2.039458e+000  4.000000e+000
    endloop
  endfacet
  facet normal  0.000000e+000  0.000000e+000  1.000000e+000
    outer loop
      vertex  4.276471e+000 -2.039458e+000  4.000000e+000
      vertex -4.866045e+000 -1.736224e+000  4.000000e+000
      vertex -4.457384e+000 -1.951633e+000  4.000000e+000
    endloop
  endfacet
  facet normal  0.000000e+000  0.000000e+000  9.999999e-001
    outer loop
      vertex  4.276471e+000 -2.039458e+000  4.000000e+000
      vertex -4.457384e+000 -1.951633e+000  4.000000e+000
      vertex  3.872983e+000 -2.219544e+000  4.000000e+000
    endloop
  endfacet
  facet normal  0.000000e+000  0.000000e+000  9.999999e-001
    outer loop
      vertex  3.872983e+000 -2.219544e+000  4.000000e+000
      vertex -4.457384e+000 -1.951633e+000  4.000000e+000
      vertex -4.039210e+000 -2.147939e+000  4.000000e+000
    endloop
  endfacet
  facet normal  0.000000e+000  0.000000e+000  1.000000e+000
    outer loop
      vertex  3.872983e+000 -2.219544e+000  4.000000e+000
      vertex -4.039210e+000 -2.147939e+000  4.000000e+000
      vertex  3.461934e+000 -2.381632e+000  4.000000e+000
    endloop
  endfacet
  facet normal  0.000000e+000  0.000000e+000  1.000000e+000
    outer loop
      vertex  3.461934e+000 -2.381632e+000  4.000000e+000
      vertex -4.039210e+000 -2.147939e+000  4.000000e+000
      vertex -3.612417e+000 -2.324722e+000  4.000000e+000
    endloop
  endfacet
  facet normal  0.000000e+000  0.000000e+000  1.000000e+000
    outer loop
      vertex  3.461934e+000 -2.381632e+000  4.000000e+000
      vertex -3.612417e+000 -2.324722e+000  4.000000e+000
      vertex  3.044127e+000 -2.525403e+000  4.000000e+000
    endloop
  endfacet
  facet normal  0.000000e+000  0.000000e+000  1.000000e+000
    outer loop
      vertex  3.044127e+000 -2.525403e+000  4.000000e+000
      vertex -3.612417e+000 -2.324722e+000  4.000000e+000
      vertex -3.177914e+000 -2.481606e+000  4.000000e+000
    endloop
  endfacet
  facet normal  0.000000e+000  0.000000e+000  1.000000e+000
    outer loop
      vertex  3.044127e+000 -2.525403e+000  4.000000e+000
      vertex -3.177914e+000 -2.481606e+000  4.000000e+000
      vertex  2.620376e+000 -2.650577e+000  4.000000e+000
    endloop
  endfacet
  facet normal  0.000000e+000  0.000000e+000  1.000000e+000
    outer loop
      vertex  2.620376e+000 -2.650577e+000  4.000000e+000
      vertex -3.177914e+000 -2.481606e+000  4.000000e+000
      vertex -2.736630e+000 -2.618256e+000  4.000000e+000
    endloop
  endfacet
  facet normal  0.000000e+000  0.000000e+000  1.000000e+000
    outer loop
      vertex  2.620376e+000 -2.650577e+000  4.000000e+000
      vertex -2.736630e+000 -2.618256e+000  4.000000e+000
      vertex  2.191509e+000 -2.756910e+000  4.000000e+000
    endloop
  endfacet
  facet normal  0.000000e+000  0.000000e+000  1.000000e+000
    outer loop
      vertex  2.191509e+000 -2.756910e+000  4.000000e+000
      vertex -2.736630e+000 -2.618256e+000  4.000000e+000
      vertex -2.289505e+000 -2.734380e+000  4.000000e+000
    endloop
  endfacet
  facet normal  0.000000e+000  0.000000e+000  1.000000e+000
    outer loop
      vertex  2.191509e+000 -2.756910e+000  4.000000e+000
      vertex -2.289505e+000 -2.734380e+000  4.000000e+000
      vertex  1.758364e+000 -2.844194e+000  4.000000e+000
    endloop
  endfacet
  facet normal  0.000000e+000  0.000000e+000  1.000000e+000
    outer loop
      vertex  1.758364e+000 -2.844194e+000  4.000000e+000
      vertex -2.289505e+000 -2.734380e+000  4.000000e+000
      vertex -1.837495e+000 -2.829731e+000  4.000000e+000
    endloop
  endfacet
  facet normal  0.000000e+000  0.000000e+000  1.000000e+000
    outer loop
      vertex  1.758364e+000 -2.844194e+000  4.000000e+000
      vertex -1.837495e+000 -2.829731e+000  4.000000e+000
      vertex  1.321785e+000 -2.912259e+000  4.000000e+000
    endloop
  endfacet
  facet normal  0.000000e+000  0.000000e+000  1.000000e+000
    outer loop
      vertex  1.321785e+000 -2.912259e+000  4.000000e+000
      vertex -1.837495e+000 -2.829731e+000  4.000000e+000
      vertex -1.381564e+000 -2.904104e+000  4.000000e+000
    endloop
  endfacet
  facet normal  0.000000e+000  0.000000e+000  1.000000e+000
    outer loop
      vertex  1.321785e+000 -2.912259e+000  4.000000e+000
      vertex -1.381564e+000 -2.904104e+000  4.000000e+000
      vertex  8.826265e-001 -2.960972e+000  4.000000e+000
    endloop
  endfacet
  facet normal  0.000000e+000  0.000000e+000  1.000000e+000
    outer loop
      vertex  8.826265e-001 -2.960972e+000  4.000000e+000
      vertex -1.381564e+000 -2.904104e+000  4.000000e+000
      vertex -9.226836e-001 -2.957342e+000  4.000000e+000
    endloop
  endfacet
  facet normal  0.000000e+000  0.000000e+000  1.000000e+000
    outer loop
      vertex  8.826265e-001 -2.960972e+000  4.000000e+000
      vertex -9.226836e-001 -2.957342e+000  4.000000e+000
      vertex  4.417444e-001 -2.990238e+000  4.000000e+000
    endloop
  endfacet
  facet normal  0.000000e+000  0.000000e+000  1.000000e+000
    outer loop
      vertex  4.417444e-001 -2.990238e+000  4.000000e+000
      vertex -9.226836e-001 -2.957342e+000  4.000000e+000
      vertex -4.618346e-001 -2.989330e+000  4.000000e+000
    endloop
  endfacet
  facet normal  0.000000e+000  0.000000e+000  1.000000e+000
    outer loop
      vertex  4.417444e-001 -2.990238e+000  4.000000e+000
      vertex -4.618346e-001 -2.989330e+000  4.000000e+000
      vertex -1.836910e-015 -3.000000e+000  4.000000e+000
    endloop
  endfacet
  facet normal  0.000000e+000  0.000000e+000 -1.000000e+000
    outer loop
      vertex -1.872698e+000  2.551500e-001  0.000000e+000
      vertex -7.390089e+000  2.630436e-001  0.000000e+000
      vertex -2.235111e+000  3.664278e-001  0.000000e+000
    endloop
  endfacet
  facet normal  0.000000e+000  0.000000e+000 -1.000000e+000
    outer loop
      vertex -7.071068e+000 -7.106781e-002  0.000000e+000
      vertex -7.390089e+000  2.630436e-001  0.000000e+000
      vertex -1.872698e+000  2.551500e-001  0.000000e+000
    endloop
  endfacet
  facet normal  0.000000e+000  -0.000000e+000 -1.000000e+000
    outer loop
      vertex -7.071068e+000 -7.106781e-002  0.000000e+000
      vertex -1.872698e+000  2.551500e-001  0.000000e+000
      vertex -1.504793e+000  1.636561e-001  0.000000e+000
    endloop
  endfacet
  facet normal  0.000000e+000  -0.000000e+000 -1.000000e+000
    outer loop
      vertex -7.071068e+000 -7.106781e-002  0.000000e+000
      vertex -1.504793e+000  1.636561e-001  0.000000e+000
      vertex -1.132474e+000  9.221435e-002  0.000000e+000
    endloop
  endfacet
  facet normal  0.000000e+000  -0.000000e+000 -9.999999e-001
    outer loop
      vertex -7.071068e+000 -7.106781e-002  0.000000e+000
      vertex -1.132474e+000  9.221435e-002  0.000000e+000
      vertex -7.568331e-001  4.103430e-002  0.000000e+000
    endloop
  endfacet
  facet normal  0.000000e+000  -0.000000e+000 -1.000000e+000
    outer loop
      vertex -7.071068e+000 -7.106781e-002  0.000000e+000
      vertex -7.568331e-001  4.103430e-002  0.000000e+000
      vertex -3.789724e-001  1.026610e-002  0.000000e+000
    endloop
  endfacet
  facet normal  0.000000e+000  -0.000000e+000 -1.000000e+000
    outer loop
      vertex -7.071068e+000 -7.106781e-002  0.000000e+000
      vertex -3.789724e-001  1.026610e-002  0.000000e+000
      vertex -7.105427e-015 -2.211592e-016  0.000000e+000
    endloop
  endfacet
  facet normal  0.000000e+000  -0.000000e+000 -1.000000e+000
    outer loop
      vertex -7.071068e+000 -7.106781e-002  0.000000e+000
      vertex -7.105427e-015 -2.211592e-016  0.000000e+000
      vertex  7.141428e+000 -2.664535e-015  0.000000e+000
    endloop
  endfacet
  facet normal  0.000000e+000  0.000000e+000 -1.000000e+000
    outer loop
      vertex -7.071068e+000 -7.106781e-002  0.000000e+000
      vertex  7.141428e+000 -2.664535e-015  0.000000e+000
      vertex  6.825236e+000 -3.086355e-001  0.000000e+000
    endloop
  endfacet
  facet normal  -0.000000e+000  0.000000e+000 -1.000000e+000
    outer loop
      vertex -7.071068e+000 -7.106781e-002  0.000000e+000
      vertex  6.825236e+000 -3.086355e-001  0.000000e+000
      vertex -6.736957e+000 -3.900892e-001  0.000000e+000
    endloop
  endfacet
  facet normal  0.000000e+000  0.000000e+000 -9.999999e-001
    outer loop
      vertex -6.836344e+000  5.495207e+000  0.000000e+000
      vertex -9.904104e+000  5.618436e+000  0.000000e+000
      vertex -6.907786e+000  5.867526e+000  0.000000e+000
    endloop
  endfacet
  facet normal  -0.000000e+000  0.000000e+000 -1.000000e+000
    outer loop
      vertex -6.907786e+000  5.867526e+000  0.000000e+000
      vertex -9.904104e+000  5.618436e+000  0.000000e+000
      vertex -9.957342e+000  6.077316e+000  0.000000e+000
    endloop
  endfacet
  facet normal  0.000000e+000  0.000000e+000 -1.000000e+000
    outer loop
      vertex -6.907786e+000  5.867526e+000  0.000000e+000
      vertex -9.957342e+000  6.077316e+000  0.000000e+000
      vertex -6.958966e+000  6.243167e+000  0.000000e+000
    endloop
  endfacet
  facet normal  -0.000000e+000  0.000000e+000 -1.000000e+000
    outer loop
      vertex -6.958966e+000  6.243167e+000  0.000000e+000
      vertex -9.957342e+000  6.077316e+000  0.000000e+000
      vertex -9.989329e+000  6.538166e+000  0.000000e+000
    endloop
  endfacet
  facet normal  0.000000e+000  0.000000e+000 -1.000000e+000
    outer loop
      vertex -6.958966e+000  6.243167e+000  0.000000e+000
      vertex -9.989329e+000  6.538166e+000  0.000000e+000
      vertex -6.989734e+000  6.621027e+000  0.000000e+000
    endloop
  endfacet
  facet normal  -0.000000e+000  0.000000e+000 -1.000000e+000
    outer loop
      vertex -6.989734e+000  6.621027e+000  0.000000e+000
      vertex -9.989329e+000  6.538166e+000  0.000000e+000
      vertex -1.000000e+001  7.000000e+000  0.000000e+000
    endloop
  endfacet
  facet normal  0.000000e+000  0.000000e+000 -9.999999e-001
    outer loop
      vertex -6.989734e+000  6.621027e+000  0.000000e+000
      vertex -1.000000e+001  7.000000e+000  0.000000e+000
      vertex -7.000000e+000  7.000000e+000  0.000000e+000
    endloop
  endfacet
  facet normal  0.000000e+000  0.000000e+000 -1.000000e+000
    outer loop
      vertex -6.184584e+000  3.721141e+000  0.000000e+000
      vertex -9.481606e+000  3.822086e+000  0.000000e+000
      vertex -6.353028e+000  4.060776e+000  0.000000e+000
    endloop
  endfacet
  facet normal  -0.000000e+000  0.000000e+000 -9.999999e-001
    outer loop
      vertex -6.353028e+000  4.060776e+000  0.000000e+000
      vertex -9.481606e+000  3.822086e+000  0.000000e+000
      vertex -9.618257e+000  4.263370e+000  0.000000e+000
    endloop
  endfacet
  facet normal  0.000000e+000  0.000000e+000 -1.000000e+000
    outer loop
      vertex -6.353028e+000  4.060776e+000  0.000000e+000
      vertex -9.618257e+000  4.263370e+000  0.000000e+000
      vertex -6.502837e+000  4.409033e+000  0.000000e+000
    endloop
  endfacet
  facet normal  -0.000000e+000  0.000000e+000 -1.000000e+000
    outer loop
      vertex -6.502837e+000  4.409033e+000  0.000000e+000
      vertex -9.618257e+000  4.263370e+000  0.000000e+000
      vertex -9.734381e+000  4.710495e+000  0.000000e+000
    endloop
  endfacet
  facet normal  0.000000e+000  0.000000e+000 -1.000000e+000
    outer loop
      vertex -6.502837e+000  4.409033e+000  0.000000e+000
      vertex -9.734381e+000  4.710495e+000  0.000000e+000
      vertex -6.633572e+000  4.764889e+000  0.000000e+000
    endloop
  endfacet
  facet normal  -0.000000e+000  0.000000e+000 -1.000000e+000
    outer loop
      vertex -6.633572e+000  4.764889e+000  0.000000e+000
      vertex -9.734381e+000  4.710495e+000  0.000000e+000
      vertex -9.829731e+000  5.162505e+000  0.000000e+000
    endloop
  endfacet
  facet normal  0.000000e+000  0.000000e+000 -1.000000e+000
    outer loop
      vertex -6.633572e+000  4.764889e+000  0.000000e+000
      vertex -9.829731e+000  5.162505e+000  0.000000e+000
      vertex -6.744850e+000  5.127302e+000  0.000000e+000
    endloop
  endfacet
  facet normal  0.000000e+000  0.000000e+000 -1.000000e+000
    outer loop
      vertex -6.744850e+000  5.127302e+000  0.000000e+000
      vertex -9.829731e+000  5.162505e+000  0.000000e+000
      vertex -9.904104e+000  5.618436e+000  0.000000e+000
    endloop
  endfacet
  facet normal  0.000000e+000  0.000000e+000 -1.000000e+000
    outer loop
      vertex -6.744850e+000  5.127302e+000  0.000000e+000
      vertex -9.904104e+000  5.618436e+000  0.000000e+000
      vertex -6.836344e+000  5.495207e+000  0.000000e+000
    endloop
  endfacet
  facet normal  0.000000e+000  0.000000e+000 -1.000000e+000
    outer loop
      vertex -5.335135e+000  2.468296e+000  0.000000e+000
      vertex -8.951632e+000  2.542616e+000  0.000000e+000
      vertex -5.572651e+000  2.763781e+000  0.000000e+000
    endloop
  endfacet
  facet normal  -0.000000e+000  0.000000e+000 -1.000000e+000
    outer loop
      vertex -5.572651e+000  2.763781e+000  0.000000e+000
      vertex -8.951632e+000  2.542616e+000  0.000000e+000
      vertex -9.147939e+000  2.960790e+000  0.000000e+000
    endloop
  endfacet
  facet normal  0.000000e+000  0.000000e+000 -1.000000e+000
    outer loop
      vertex -5.572651e+000  2.763781e+000  0.000000e+000
      vertex -9.147939e+000  2.960790e+000  0.000000e+000
      vertex -5.793823e+000  3.071691e+000  0.000000e+000
    endloop
  endfacet
  facet normal  -0.000000e+000  0.000000e+000 -1.000000e+000
    outer loop
      vertex -5.793823e+000  3.071691e+000  0.000000e+000
      vertex -9.147939e+000  2.960790e+000  0.000000e+000
      vertex -9.324722e+000  3.387583e+000  0.000000e+000
    endloop
  endfacet
  facet normal  0.000000e+000  0.000000e+000 -1.000000e+000
    outer loop
      vertex -5.793823e+000  3.071691e+000  0.000000e+000
      vertex -9.324722e+000  3.387583e+000  0.000000e+000
      vertex -5.998000e+000  3.391123e+000  0.000000e+000
    endloop
  endfacet
  facet normal  -0.000000e+000  0.000000e+000 -1.000000e+000
    outer loop
      vertex -5.998000e+000  3.391123e+000  0.000000e+000
      vertex -9.324722e+000  3.387583e+000  0.000000e+000
      vertex -9.481606e+000  3.822086e+000  0.000000e+000
    endloop
  endfacet
  facet normal  0.000000e+000  0.000000e+000 -1.000000e+000
    outer loop
      vertex -5.998000e+000  3.391123e+000  0.000000e+000
      vertex -9.481606e+000  3.822086e+000  0.000000e+000
      vertex -6.184584e+000  3.721141e+000  0.000000e+000
    endloop
  endfacet
  facet normal  0.000000e+000  0.000000e+000 -1.000000e+000
    outer loop
      vertex -4.531704e+000  1.664866e+000  0.000000e+000
      vertex -8.502172e+000  1.735678e+000  0.000000e+000
      vertex -4.813896e+000  1.918032e+000  0.000000e+000
    endloop
  endfacet
  facet normal  -0.000000e+000  0.000000e+000 -1.000000e+000
    outer loop
      vertex -4.813896e+000  1.918032e+000  0.000000e+000
      vertex -8.502172e+000  1.735678e+000  0.000000e+000
      vertex -8.736224e+000  2.133955e+000  0.000000e+000
    endloop
  endfacet
  facet normal  0.000000e+000  0.000000e+000 -1.000000e+000
    outer loop
      vertex -4.813896e+000  1.918032e+000  0.000000e+000
      vertex -8.736224e+000  2.133955e+000  0.000000e+000
      vertex -5.081968e+000  2.186104e+000  0.000000e+000
    endloop
  endfacet
  facet normal  -0.000000e+000  0.000000e+000 -1.000000e+000
    outer loop
      vertex -5.081968e+000  2.186104e+000  0.000000e+000
      vertex -8.736224e+000  2.133955e+000  0.000000e+000
      vertex -8.951632e+000  2.542616e+000  0.000000e+000
    endloop
  endfacet
  facet normal  0.000000e+000  0.000000e+000 -1.000000e+000
    outer loop
      vertex -5.081968e+000  2.186104e+000  0.000000e+000
      vertex -8.951632e+000  2.542616e+000  0.000000e+000
      vertex -5.335135e+000  2.468296e+000  0.000000e+000
    endloop
  endfacet
  facet normal  0.000000e+000  0.000000e+000 -1.000000e+000
    outer loop
      vertex -3.608877e+000  1.002000e+000  0.000000e+000
      vertex -7.980172e+000  9.736536e-001  0.000000e+000
      vertex -3.928309e+000  1.206177e+000  0.000000e+000
    endloop
  endfacet
  facet normal  -0.000000e+000  0.000000e+000 -1.000000e+000
    outer loop
      vertex -3.928309e+000  1.206177e+000  0.000000e+000
      vertex -7.980172e+000  9.736536e-001  0.000000e+000
      vertex -8.249975e+000  1.348636e+000  0.000000e+000
    endloop
  endfacet
  facet normal  0.000000e+000  0.000000e+000 -9.999999e-001
    outer loop
      vertex -3.928309e+000  1.206177e+000  0.000000e+000
      vertex -8.249975e+000  1.348636e+000  0.000000e+000
      vertex -4.236219e+000  1.427348e+000  0.000000e+000
    endloop
  endfacet
  facet normal  -0.000000e+000  0.000000e+000 -1.000000e+000
    outer loop
      vertex -4.236219e+000  1.427348e+000  0.000000e+000
      vertex -8.249975e+000  1.348636e+000  0.000000e+000
      vertex -8.502172e+000  1.735678e+000  0.000000e+000
    endloop
  endfacet
  facet normal  0.000000e+000  0.000000e+000 -9.999999e-001
    outer loop
      vertex -4.236219e+000  1.427348e+000  0.000000e+000
      vertex -8.502172e+000  1.735678e+000  0.000000e+000
      vertex -4.531704e+000  1.664866e+000  0.000000e+000
    endloop
  endfacet
  facet normal  0.000000e+000  0.000000e+000 -1.000000e+000
    outer loop
      vertex -2.939224e+000  6.469721e-001  0.000000e+000
      vertex -7.693340e+000  6.115320e-001  0.000000e+000
      vertex -3.278859e+000  8.154157e-001  0.000000e+000
    endloop
  endfacet
  facet normal  -0.000000e+000  0.000000e+000 -1.000000e+000
    outer loop
      vertex -3.278859e+000  8.154157e-001  0.000000e+000
      vertex -7.693340e+000  6.115320e-001  0.000000e+000
      vertex -7.980172e+000  9.736536e-001  0.000000e+000
    endloop
  endfacet
  facet normal  0.000000e+000  0.000000e+000 -1.000000e+000
    outer loop
      vertex -3.278859e+000  8.154157e-001  0.000000e+000
      vertex -7.980172e+000  9.736536e-001  0.000000e+000
      vertex -3.608877e+000  1.002000e+000  0.000000e+000
    endloop
  endfacet
  facet normal  0.000000e+000  0.000000e+000 -1.000000e+000
    outer loop
      vertex -2.235111e+000  3.664278e-001  0.000000e+000
      vertex -7.390089e+000  2.630436e-001  0.000000e+000
      vertex -2.590967e+000  4.971630e-001  0.000000e+000
    endloop
  endfacet
  facet normal  -0.000000e+000  0.000000e+000 -9.999999e-001
    outer loop
      vertex -2.590967e+000  4.971630e-001  0.000000e+000
      vertex -7.390089e+000  2.630436e-001  0.000000e+000
      vertex -7.693340e+000  6.115320e-001  0.000000e+000
    endloop
  endfacet
  facet normal  0.000000e+000  0.000000e+000 -9.999999e-001
    outer loop
      vertex -2.590967e+000  4.971630e-001  0.000000e+000
      vertex -7.693340e+000  6.115320e-001  0.000000e+000
      vertex -2.939224e+000  6.469721e-001  0.000000e+000
    endloop
  endfacet
  facet normal  0.000000e+000  0.000000e+000 -1.000000e+000
    outer loop
      vertex  4.671609e+000 -1.841723e+000  0.000000e+000
      vertex -4.866045e+000 -1.736224e+000  0.000000e+000
      vertex  5.057627e+000 -1.626726e+000  0.000000e+000
    endloop
  endfacet
  facet normal  -0.000000e+000  0.000000e+000 -1.000000e+000
    outer loop
      vertex  5.057627e+000 -1.626726e+000  0.000000e+000
      vertex -4.866045e+000 -1.736224e+000  0.000000e+000
      vertex -5.264322e+000 -1.502171e+000  0.000000e+000
    endloop
  endfacet
  facet normal  0.000000e+000  0.000000e+000 -1.000000e+000
    outer loop
      vertex  5.057627e+000 -1.626726e+000  0.000000e+000
      vertex -5.264322e+000 -1.502171e+000  0.000000e+000
      vertex  5.433771e+000 -1.394887e+000  0.000000e+000
    endloop
  endfacet
  facet normal  -0.000000e+000  0.000000e+000 -1.000000e+000
    outer loop
      vertex  5.433771e+000 -1.394887e+000  0.000000e+000
      vertex -5.264322e+000 -1.502171e+000  0.000000e+000
      vertex -5.651364e+000 -1.249975e+000  0.000000e+000
    endloop
  endfacet
  facet normal  0.000000e+000  0.000000e+000 -1.000000e+000
    outer loop
      vertex  5.433771e+000 -1.394887e+000  0.000000e+000
      vertex -5.651364e+000 -1.249975e+000  0.000000e+000
      vertex  5.799306e+000 -1.146659e+000  0.000000e+000
    endloop
  endfacet
  facet normal  -0.000000e+000  0.000000e+000 -1.000000e+000
    outer loop
      vertex  5.799306e+000 -1.146659e+000  0.000000e+000
      vertex -5.651364e+000 -1.249975e+000  0.000000e+000
      vertex -6.026346e+000 -9.801723e-001  0.000000e+000
    endloop
  endfacet
  facet normal  0.000000e+000  0.000000e+000 -1.000000e+000
    outer loop
      vertex  5.799306e+000 -1.146659e+000  0.000000e+000
      vertex -6.026346e+000 -9.801723e-001  0.000000e+000
      vertex  6.153519e+000 -8.825250e-001  0.000000e+000
    endloop
  endfacet
  facet normal  -0.000000e+000  0.000000e+000 -1.000000e+000
    outer loop
      vertex  6.153519e+000 -8.825250e-001  0.000000e+000
      vertex -6.026346e+000 -9.801723e-001  0.000000e+000
      vertex -6.388468e+000 -6.933397e-001  0.000000e+000
    endloop
  endfacet
  facet normal  0.000000e+000  0.000000e+000 -9.999999e-001
    outer loop
      vertex  6.153519e+000 -8.825250e-001  0.000000e+000
      vertex -6.388468e+000 -6.933397e-001  0.000000e+000
      vertex  6.495718e+000 -6.030020e-001  0.000000e+000
    endloop
  endfacet
  facet normal  -0.000000e+000  0.000000e+000 -1.000000e+000
    outer loop
      vertex  6.495718e+000 -6.030020e-001  0.000000e+000
      vertex -6.388468e+000 -6.933397e-001  0.000000e+000
      vertex -6.736957e+000 -3.900892e-001  0.000000e+000
    endloop
  endfacet
  facet normal  0.000000e+000  0.000000e+000 -1.000000e+000
    outer loop
      vertex  6.495718e+000 -6.030020e-001  0.000000e+000
      vertex -6.736957e+000 -3.900892e-001  0.000000e+000
      vertex  6.825236e+000 -3.086355e-001  0.000000e+000
    endloop
  endfacet
  facet normal  0.000000e+000  0.000000e+000 -1.000000e+000
    outer loop
      vertex -1.836910e-015 -3.000000e+000  0.000000e+000
      vertex -4.618346e-001 -2.989330e+000  0.000000e+000
      vertex  4.417444e-001 -2.990238e+000  0.000000e+000
    endloop
  endfacet
  facet normal  0.000000e+000  0.000000e+000 -1.000000e+000
    outer loop
      vertex  4.417444e-001 -2.990238e+000  0.000000e+000
      vertex -4.618346e-001 -2.989330e+000  0.000000e+000
      vertex -9.226836e-001 -2.957342e+000  0.000000e+000
    endloop
  endfacet
  facet normal  0.000000e+000  0.000000e+000 -1.000000e+000
    outer loop
      vertex  4.417444e-001 -2.990238e+000  0.000000e+000
      vertex -9.226836e-001 -2.957342e+000  0.000000e+000
      vertex  8.826265e-001 -2.960972e+000  0.000000e+000
    endloop
  endfacet
  facet normal  0.000000e+000  0.000000e+000 -1.000000e+000
    outer loop
      vertex  8.826265e-001 -2.960972e+000  0.000000e+000
      vertex -9.226836e-001 -2.957342e+000  0.000000e+000
      vertex -1.381564e+000 -2.904104e+000  0.000000e+000
    endloop
  endfacet
  facet normal  0.000000e+000  0.000000e+000 -1.000000e+000
    outer loop
      vertex  8.826265e-001 -2.960972e+000  0.000000e+000
      vertex -1.381564e+000 -2.904104e+000  0.000000e+000
      vertex  1.321785e+000 -2.912259e+000  0.000000e+000
    endloop
  endfacet
  facet normal  0.000000e+000  0.000000e+000 -1.000000e+000
    outer loop
      vertex  1.321785e+000 -2.912259e+000  0.000000e+000
      vertex -1.381564e+000 -2.904104e+000  0.000000e+000
      vertex -1.837495e+000 -2.829731e+000  0.000000e+000
    endloop
  endfacet
  facet normal  0.000000e+000  0.000000e+000 -1.000000e+000
    outer loop
      vertex  1.321785e+000 -2.912259e+000  0.000000e+000
      vertex -1.837495e+000 -2.829731e+000  0.000000e+000
      vertex  1.758364e+000 -2.844194e+000  0.000000e+000
    endloop
  endfacet
  facet normal  0.000000e+000  0.000000e+000 -1.000000e+000
    outer loop
      vertex  1.758364e+000 -2.844194e+000  0.000000e+000
      vertex -1.837495e+000 -2.829731e+000  0.000000e+000
      vertex -2.289505e+000 -2.734380e+000  0.000000e+000
    endloop
  endfacet
  facet normal  0.000000e+000  0.000000e+000 -1.000000e+000
    outer loop
      vertex  1.758364e+000 -2.844194e+000  0.000000e+000
      vertex -2.289505e+000 -2.734380e+000  0.000000e+000
      vertex  2.191509e+000 -2.756910e+000  0.000000e+000
    endloop
  endfacet
  facet normal  0.000000e+000  0.000000e+000 -1.000000e+000
    outer loop
      vertex  2.191509e+000 -2.756910e+000  0.000000e+000
      vertex -2.289505e+000 -2.734380e+000  0.000000e+000
      vertex -2.736630e+000 -2.618256e+000  0.000000e+000
    endloop
  endfacet
  facet normal  0.000000e+000  0.000000e+000 -1.000000e+000
    outer loop
      vertex  2.191509e+000 -2.756910e+000  0.000000e+000
      vertex -2.736630e+000 -2.618256e+000  0.000000e+000
      vertex  2.620376e+000 -2.650577e+000  0.000000e+000
    endloop
  endfacet
  facet normal  0.000000e+000  0.000000e+000 -1.000000e+000
    outer loop
      vertex  2.620376e+000 -2.650577e+000  0.000000e+000
      vertex -2.736630e+000 -2.618256e+000  0.000000e+000
      vertex -3.177914e+000 -2.481606e+000  0.000000e+000
    endloop
  endfacet
  facet normal  0.000000e+000  0.000000e+000 -1.000000e+000
    outer loop
      vertex  2.620376e+000 -2.650577e+000  0.000000e+000
      vertex -3.177914e+000 -2.481606e+000  0.000000e+000
      vertex  3.044127e+000 -2.525403e+000  0.000000e+000
    endloop
  endfacet
  facet normal  0.000000e+000  0.000000e+000 -1.000000e+000
    outer loop
      vertex  3.044127e+000 -2.525403e+000  0.000000e+000
      vertex -3.177914e+000 -2.481606e+000  0.000000e+000
      vertex -3.612417e+000 -2.324722e+000  0.000000e+000
    endloop
  endfacet
  facet normal  0.000000e+000  0.000000e+000 -1.000000e+000
    outer loop
      vertex  3.044127e+000 -2.525403e+000  0.000000e+000
      vertex -3.612417e+000 -2.324722e+000  0.000000e+000
      vertex  3.461934e+000 -2.381632e+000  0.000000e+000
    endloop
  endfacet
  facet normal  0.000000e+000  0.000000e+000 -1.000000e+000
    outer loop
      vertex  3.461934e+000 -2.381632e+000  0.000000e+000
      vertex -3.612417e+000 -2.324722e+000  0.000000e+000
      vertex -4.039210e+000 -2.147939e+000  0.000000e+000
    endloop
  endfacet
  facet normal  0.000000e+000  0.000000e+000 -1.000000e+000
    outer loop
      vertex  3.461934e+000 -2.381632e+000  0.000000e+000
      vertex -4.039210e+000 -2.147939e+000  0.000000e+000
      vertex  3.872983e+000 -2.219544e+000  0.000000e+000
    endloop
  endfacet
  facet normal  0.000000e+000  0.000000e+000 -9.999999e-001
    outer loop
      vertex  3.872983e+000 -2.219544e+000  0.000000e+000
      vertex -4.039210e+000 -2.147939e+000  0.000000e+000
      vertex -4.457384e+000 -1.951633e+000  0.000000e+000
    endloop
  endfacet
  facet normal  0.000000e+000  0.000000e+000 -9.999999e-001
    outer loop
      vertex  3.872983e+000 -2.219544e+000  0.000000e+000
      vertex -4.457384e+000 -1.951633e+000  0.000000e+000
      vertex  4.276471e+000 -2.039458e+000  0.000000e+000
    endloop
  endfacet
  facet normal  0.000000e+000  0.000000e+000 -1.000000e+000
    outer loop
      vertex  4.276471e+000 -2.039458e+000  0.000000e+000
      vertex -4.457384e+000 -1.951633e+000  0.000000e+000
      vertex -4.866045e+000 -1.736224e+000  0.000000e+000
    endloop
  endfacet
  facet normal  0.000000e+000  0.000000e+000 -1.000000e+000
    outer loop
      vertex  4.276471e+000 -2.039458e+000  0.000000e+000
      vertex -4.866045e+000 -1.736224e+000  0.000000e+000
      vertex  4.671609e+000 -1.841723e+000  0.000000e+000
    endloop
  endfacet
  facet normal  6.677878e-001  7.443517e-001  0.000000e+000
    outer loop
      vertex -4.813896e+000  1.918032e+000  0.000000e+000
      vertex -4.531704e+000  1.664866e+000  4.000000e+000
      vertex -4.531704e+000  1.664866e+000  0.000000e+000
    endloop
  endfacet
  facet normal  6.265100e-001  7.794133e-001  -0.000000e+000
    outer loop
      vertex -4.531704e+000  1.664866e+000  0.000000e+000
      vertex -4.531704e+000  1.664866e+000  4.000000e+000
      vertex -4.236219e+000  1.427348e+000  4.000000e+000
    endloop
  endfacet
  facet normal  6.265100e-001  7.794133e-001  0.000000e+000
    outer loop
      vertex -4.531704e+000  1.664866e+000  0.000000e+000
      vertex -4.236219e+000  1.427348e+000  4.000000e+000
      vertex -4.236219e+000  1.427348e+000  0.000000e+000
    endloop
  endfacet
  facet normal  5.833946e-001  8.121888e-001  -0.000000e+000
    outer loop
      vertex -4.236219e+000  1.427348e+000  0.000000e+000
      vertex -4.236219e+000  1.427348e+000  4.000000e+000
      vertex -3.928309e+000  1.206177e+000  4.000000e+000
    endloop
  endfacet
  facet normal  5.833946e-001  8.121888e-001  0.000000e+000
    outer loop
      vertex -4.236219e+000  1.427348e+000  0.000000e+000
      vertex -3.928309e+000  1.206177e+000  4.000000e+000
      vertex -3.928309e+000  1.206177e+000  0.000000e+000
    endloop
  endfacet
  facet normal  5.385680e-001  8.425821e-001  -0.000000e+000
    outer loop
      vertex -3.928309e+000  1.206177e+000  0.000000e+000
      vertex -3.928309e+000  1.206177e+000  4.000000e+000
      vertex -3.608877e+000  1.002000e+000  4.000000e+000
    endloop
  endfacet
  facet normal  5.385680e-001  8.425821e-001  0.000000e+000
    outer loop
      vertex -3.928309e+000  1.206177e+000  0.000000e+000
      vertex -3.608877e+000  1.002000e+000  4.000000e+000
      vertex -3.608877e+000  1.002000e+000  0.000000e+000
    endloop
  endfacet
  facet normal  4.921617e-001  8.705037e-001  -0.000000e+000
    outer loop
      vertex -3.608877e+000  1.002000e+000  0.000000e+000
      vertex -3.608877e+000  1.002000e+000  4.000000e+000
      vertex -3.278859e+000  8.154157e-001  4.000000e+000
    endloop
  endfacet
  facet normal  4.921617e-001  8.705037e-001  0.000000e+000
    outer loop
      vertex -3.608877e+000  1.002000e+000  0.000000e+000
      vertex -3.278859e+000  8.154157e-001  4.000000e+000
      vertex -3.278859e+000  8.154157e-001  0.000000e+000
    endloop
  endfacet
  facet normal  4.443117e-001  8.958723e-001  -0.000000e+000
    outer loop
      vertex -3.278859e+000  8.154157e-001  0.000000e+000
      vertex -3.278859e+000  8.154157e-001  4.000000e+000
      vertex -2.939224e+000  6.469721e-001  4.000000e+000
    endloop
  endfacet
  facet normal  4.443117e-001  8.958723e-001  0.000000e+000
    outer loop
      vertex -3.278859e+000  8.154157e-001  0.000000e+000
      vertex -2.939224e+000  6.469721e-001  4.000000e+000
      vertex -2.939224e+000  6.469721e-001  0.000000e+000
    endloop
  endfacet
  facet normal  3.951586e-001  9.186130e-001  -0.000000e+000
    outer loop
      vertex -2.939224e+000  6.469721e-001  0.000000e+000
      vertex -2.939224e+000  6.469721e-001  4.000000e+000
      vertex -2.590967e+000  4.971630e-001  4.000000e+000
    endloop
  endfacet
  facet normal  3.951586e-001  9.186130e-001  0.000000e+000
    outer loop
      vertex -2.939224e+000  6.469721e-001  0.000000e+000
      vertex -2.590967e+000  4.971630e-001  4.000000e+000
      vertex -2.590967e+000  4.971630e-001  0.000000e+000
    endloop
  endfacet
  facet normal  3.448463e-001  9.386592e-001  -0.000000e+000
    outer loop
      vertex -2.590967e+000  4.971630e-001  0.000000e+000
      vertex -2.590967e+000  4.971630e-001  4.000000e+000
      vertex -2.235111e+000  3.664278e-001  4.000000e+000
    endloop
  endfacet
  facet normal  3.448463e-001  9.386592e-001  0.000000e+000
    outer loop
      vertex -2.590967e+000  4.971630e-001  0.000000e+000
      vertex -2.235111e+000  3.664278e-001  4.000000e+000
      vertex -2.235111e+000  3.664278e-001  0.000000e+000
    endloop
  endfacet
  facet normal  2.935226e-001  9.559522e-001  -0.000000e+000
    outer loop
      vertex -2.235111e+000  3.664278e-001  0.000000e+000
      vertex -2.235111e+000  3.664278e-001  4.000000e+000
      vertex -1.872698e+000  2.551500e-001  4.000000e+000
    endloop
  endfacet
  facet normal  2.935226e-001  9.559522e-001  0.000000e+000
    outer loop
      vertex -2.235111e+000  3.664278e-001  0.000000e+000
      vertex -1.872698e+000  2.551500e-001  4.000000e+000
      vertex -1.872698e+000  2.551500e-001  0.000000e+000
    endloop
  endfacet
  facet normal  2.413378e-001  9.704412e-001  -0.000000e+000
    outer loop
      vertex -1.872698e+000  2.551500e-001  0.000000e+000
      vertex -1.872698e+000  2.551500e-001  4.000000e+000
      vertex -1.504793e+000  1.636561e-001  4.000000e+000
    endloop
  endfacet
  facet normal  2.413378e-001  9.704412e-001  0.000000e+000
    outer loop
      vertex -1.872698e+000  2.551500e-001  0.000000e+000
      vertex -1.504793e+000  1.636561e-001  4.000000e+000
      vertex -1.504793e+000  1.636561e-001  0.000000e+000
    endloop
  endfacet
  facet normal  1.884453e-001  9.820837e-001  -0.000000e+000
    outer loop
      vertex -1.504793e+000  1.636561e-001  0.000000e+000
      vertex -1.504793e+000  1.636561e-001  4.000000e+000
      vertex -1.132474e+000  9.221435e-002  4.000000e+000
    endloop
  endfacet
  facet normal  1.884453e-001  9.820837e-001  0.000000e+000
    outer loop
      vertex -1.504793e+000  1.636561e-001  0.000000e+000
      vertex -1.132474e+000  9.221435e-002  4.000000e+000
      vertex -1.132474e+000  9.221435e-002  0.000000e+000
    endloop
  endfacet
  facet normal  1.350000e-001  9.908456e-001  -0.000000e+000
    outer loop
      vertex -1.132474e+000  9.221435e-002  0.000000e+000
      vertex -1.132474e+000  9.221435e-002  4.000000e+000
      vertex -7.568331e-001  4.103430e-002  4.000000e+000
    endloop
  endfacet
  facet normal  1.350000e-001  9.908456e-001  0.000000e+000
    outer loop
      vertex -1.132474e+000  9.221435e-002  0.000000e+000
      vertex -7.568331e-001  4.103430e-002  4.000000e+000
      vertex -7.568331e-001  4.103430e-002  0.000000e+000
    endloop
  endfacet
  facet normal  8.115872e-002  9.967012e-001  -0.000000e+000
    outer loop
      vertex -7.568331e-001  4.103430e-002  0.000000e+000
      vertex -7.568331e-001  4.103430e-002  4.000000e+000
      vertex -3.789724e-001  1.026610e-002  4.000000e+000
    endloop
  endfacet
  facet normal  8.115872e-002  9.967012e-001  0.000000e+000
    outer loop
      vertex -7.568331e-001  4.103430e-002  0.000000e+000
      vertex -3.789724e-001  1.026610e-002  4.000000e+000
      vertex -3.789724e-001  1.026610e-002  0.000000e+000
    endloop
  endfacet
  facet normal  2.707938e-002  9.996333e-001  -0.000000e+000
    outer loop
      vertex -3.789724e-001  1.026610e-002  0.000000e+000
      vertex -3.789724e-001  1.026610e-002  4.000000e+000
      vertex -7.105427e-015 -2.211592e-016  4.000000e+000
    endloop
  endfacet
  facet normal  2.707938e-002  9.996333e-001  0.000000e+000
    outer loop
      vertex -3.789724e-001  1.026610e-002  0.000000e+000
      vertex -7.105427e-015 -2.211592e-016  4.000000e+000
      vertex -7.105427e-015 -2.211592e-016  0.000000e+000
    endloop
  endfacet
  facet normal  6.677878e-001  7.443517e-001  -0.000000e+000
    outer loop
      vertex -4.531704e+000  1.664866e+000  4.000000e+000
      vertex -4.813896e+000  1.918032e+000  0.000000e+000
      vertex -4.813896e+000  1.918032e+000  4.000000e+000
    endloop
  endfacet
  facet normal  7.071069e-001  7.071066e-001  0.000000e+000
    outer loop
      vertex -4.813896e+000  1.918032e+000  4.000000e+000
      vertex -4.813896e+000  1.918032e+000  0.000000e+000
      vertex -5.081968e+000  2.186104e+000  0.000000e+000
    endloop
  endfacet
  facet normal  7.071069e-001  7.071066e-001  -0.000000e+000
    outer loop
      vertex -4.813896e+000  1.918032e+000  4.000000e+000
      vertex -5.081968e+000  2.186104e+000  0.000000e+000
      vertex -5.081968e+000  2.186104e+000  4.000000e+000
    endloop
  endfacet
  facet normal  7.443514e-001  6.677881e-001  0.000000e+000
    outer loop
      vertex -5.081968e+000  2.186104e+000  4.000000e+000
      vertex -5.081968e+000  2.186104e+000  0.000000e+000
      vertex -5.335135e+000  2.468296e+000  0.000000e+000
    endloop
  endfacet
  facet normal  7.443514e-001  6.677881e-001  -0.000000e+000
    outer loop
      vertex -5.081968e+000  2.186104e+000  4.000000e+000
      vertex -5.335135e+000  2.468296e+000  0.000000e+000
      vertex -5.335135e+000  2.468296e+000  4.000000e+000
    endloop
  endfacet
  facet normal  7.794137e-001  6.265096e-001  0.000000e+000
    outer loop
      vertex -5.335135e+000  2.468296e+000  4.000000e+000
      vertex -5.335135e+000  2.468296e+000  0.000000e+000
      vertex -5.572651e+000  2.763781e+000  0.000000e+000
    endloop
  endfacet
  facet normal  7.794137e-001  6.265096e-001  -0.000000e+000
    outer loop
      vertex -5.335135e+000  2.468296e+000  4.000000e+000
      vertex -5.572651e+000  2.763781e+000  0.000000e+000
      vertex -5.572651e+000  2.763781e+000  4.000000e+000
    endloop
  endfacet
  facet normal  8.121890e-001  5.833944e-001  0.000000e+000
    outer loop
      vertex -5.572651e+000  2.763781e+000  4.000000e+000
      vertex -5.572651e+000  2.763781e+000  0.000000e+000
      vertex -5.793823e+000  3.071691e+000  0.000000e+000
    endloop
  endfacet
  facet normal  8.121890e-001  5.833944e-001  -0.000000e+000
    outer loop
      vertex -5.572651e+000  2.763781e+000  4.000000e+000
      vertex -5.793823e+000  3.071691e+000  0.000000e+000
      vertex -5.793823e+000  3.071691e+000  4.000000e+000
    endloop
  endfacet
  facet normal  8.425819e-001  5.385681e-001  0.000000e+000
    outer loop
      vertex -5.793823e+000  3.071691e+000  4.000000e+000
      vertex -5.793823e+000  3.071691e+000  0.000000e+000
      vertex -5.998000e+000  3.391123e+000  0.000000e+000
    endloop
  endfacet
  facet normal  8.425819e-001  5.385681e-001  -0.000000e+000
    outer loop
      vertex -5.793823e+000  3.071691e+000  4.000000e+000
      vertex -5.998000e+000  3.391123e+000  0.000000e+000
      vertex -5.998000e+000  3.391123e+000  4.000000e+000
    endloop
  endfacet
  facet normal  8.705039e-001  4.921616e-001  0.000000e+000
    outer loop
      vertex -5.998000e+000  3.391123e+000  4.000000e+000
      vertex -5.998000e+000  3.391123e+000  0.000000e+000
      vertex -6.184584e+000  3.721141e+000  0.000000e+000
    endloop
  endfacet
  facet normal  8.705039e-001  4.921616e-001  -0.000000e+000
    outer loop
      vertex -5.998000e+000  3.391123e+000  4.000000e+000
      vertex -6.184584e+000  3.721141e+000  0.000000e+000
      vertex -6.184584e+000  3.721141e+000  4.000000e+000
    endloop
  endfacet
  facet normal  8.958722e-001  4.443118e-001  0.000000e+000
    outer loop
      vertex -6.184584e+000  3.721141e+000  4.000000e+000
      vertex -6.184584e+000  3.721141e+000  0.000000e+000
      vertex -6.353028e+000  4.060776e+000  0.000000e+000
    endloop
  endfacet
  facet normal  8.958722e-001  4.443118e-001  -0.000000e+000
    outer loop
      vertex -6.184584e+000  3.721141e+000  4.000000e+000
      vertex -6.353028e+000  4.060776e+000  0.000000e+000
      vertex -6.353028e+000  4.060776e+000  4.000000e+000
    endloop
  endfacet
  facet normal  9.186126e-001  3.951591e-001  0.000000e+000
    outer loop
      vertex -6.353028e+000  4.060776e+000  4.000000e+000
      vertex -6.353028e+000  4.060776e+000  0.000000e+000
      vertex -6.502837e+000  4.409033e+000  0.000000e+000
    endloop
  endfacet
  facet normal  9.186126e-001  3.951591e-001  -0.000000e+000
    outer loop
      vertex -6.353028e+000  4.060776e+000  4.000000e+000
      vertex -6.502837e+000  4.409033e+000  0.000000e+000
      vertex -6.502837e+000  4.409033e+000  4.000000e+000
    endloop
  endfacet
  facet normal  9.386594e-001  3.448457e-001  0.000000e+000
    outer loop
      vertex -6.502837e+000  4.409033e+000  4.000000e+000
      vertex -6.502837e+000  4.409033e+000  0.000000e+000
      vertex -6.633572e+000  4.764889e+000  0.000000e+000
    endloop
  endfacet
  facet normal  9.386594e-001  3.448457e-001  -0.000000e+000
    outer loop
      vertex -6.502837e+000  4.409033e+000  4.000000e+000
      vertex -6.633572e+000  4.764889e+000  0.000000e+000
      vertex -6.633572e+000  4.764889e+000  4.000000e+000
    endloop
  endfacet
  facet normal  9.559519e-001  2.935232e-001  0.000000e+000
    outer loop
      vertex -6.633572e+000  4.764889e+000  4.000000e+000
      vertex -6.633572e+000  4.764889e+000  0.000000e+000
      vertex -6.744850e+000  5.127302e+000  0.000000e+000
    endloop
  endfacet
  facet normal  9.559519e-001  2.935232e-001  -0.000000e+000
    outer loop
      vertex -6.633572e+000  4.764889e+000  4.000000e+000
      vertex -6.744850e+000  5.127302e+000  0.000000e+000
      vertex -6.744850e+000  5.127302e+000  4.000000e+000
    endloop
  endfacet
  facet normal  9.704413e-001  2.413372e-001  0.000000e+000
    outer loop
      vertex -6.744850e+000  5.127302e+000  4.000000e+000
      vertex -6.744850e+000  5.127302e+000  0.000000e+000
      vertex -6.836344e+000  5.495207e+000  0.000000e+000
    endloop
  endfacet
  facet normal  9.704413e-001  2.413372e-001  -0.000000e+000
    outer loop
      vertex -6.744850e+000  5.127302e+000  4.000000e+000
      vertex -6.836344e+000  5.495207e+000  0.000000e+000
      vertex -6.836344e+000  5.495207e+000  4.000000e+000
    endloop
  endfacet
  facet normal  9.820836e-001  1.884462e-001  0.000000e+000
    outer loop
      vertex -6.836344e+000  5.495207e+000  4.000000e+000
      vertex -6.836344e+000  5.495207e+000  0.000000e+000
      vertex -6.907786e+000  5.867526e+000  0.000000e+000
    endloop
  endfacet
  facet normal  9.820836e-001  1.884462e-001  -0.000000e+000
    outer loop
      vertex -6.836344e+000  5.495207e+000  4.000000e+000
      vertex -6.907786e+000  5.867526e+000  0.000000e+000
      vertex -6.907786e+000  5.867526e+000  4.000000e+000
    endloop
  endfacet
  facet normal  9.908457e-001  1.349996e-001  0.000000e+000
    outer loop
      vertex -6.907786e+000  5.867526e+000  4.000000e+000
      vertex -6.907786e+000  5.867526e+000  0.000000e+000
      vertex -6.958966e+000  6.243167e+000  0.000000e+000
    endloop
  endfacet
  facet normal  9.908457e-001  1.349996e-001  -0.000000e+000
    outer loop
      vertex -6.907786e+000  5.867526e+000  4.000000e+000
      vertex -6.958966e+000  6.243167e+000  0.000000e+000
      vertex -6.958966e+000  6.243167e+000  4.000000e+000
    endloop
  endfacet
  facet normal  9.967012e-001  8.115804e-002  0.000000e+000
    outer loop
      vertex -6.958966e+000  6.243167e+000  4.000000e+000
      vertex -6.958966e+000  6.243167e+000  0.000000e+000
      vertex -6.989734e+000  6.621027e+000  0.000000e+000
    endloop
  endfacet
  facet normal  9.967012e-001  8.115804e-002  -0.000000e+000
    outer loop
      vertex -6.958966e+000  6.243167e+000  4.000000e+000
      vertex -6.989734e+000  6.621027e+000  0.000000e+000
      vertex -6.989734e+000  6.621027e+000  4.000000e+000
    endloop
  endfacet
  facet normal  9.996333e-001  2.707990e-002  0.000000e+000
    outer loop
      vertex -6.989734e+000  6.621027e+000  4.000000e+000
      vertex -6.989734e+000  6.621027e+000  0.000000e+000
      vertex -7.000000e+000  7.000000e+000  0.000000e+000
    endloop
  endfacet
  facet normal  9.996333e-001  2.707990e-002  -0.000000e+000
    outer loop
      vertex -6.989734e+000  6.621027e+000  4.000000e+000
      vertex -7.000000e+000  7.000000e+000  0.000000e+000
      vertex -7.000000e+000  7.000000e+000  4.000000e+000
    endloop
  endfacet
  facet normal  3.421411e-016  1.000000e+000  0.000000e+000
    outer loop
      vertex -7.105427e-015 -2.211592e-016  4.000000e+000
      vertex  7.141428e+000 -2.664535e-015  4.000000e+000
      vertex -7.105427e-015 -2.211592e-016  0.000000e+000
    endloop
  endfacet
  facet normal  3.421411e-016  1.000000e+000  0.000000e+000
    outer loop
      vertex -7.105427e-015 -2.211592e-016  0.000000e+000
      vertex  7.141428e+000 -2.664535e-015  4.000000e+000
      vertex  7.141428e+000 -2.664535e-015  0.000000e+000
    endloop
  endfacet
  facet normal  6.985040e-001 -7.156062e-001  0.000000e+000
    outer loop
      vertex  7.141428e+000 -2.664535e-015  0.000000e+000
      vertex  7.141428e+000 -2.664535e-015  4.000000e+000
      vertex  6.825236e+000 -3.086355e-001  0.000000e+000
    endloop
  endfacet
  facet normal  6.985040e-001 -7.156062e-001  0.000000e+000
    outer loop
      vertex  6.825236e+000 -3.086355e-001  0.000000e+000
      vertex  7.141428e+000 -2.664535e-015  4.000000e+000
      vertex  6.825236e+000 -3.086355e-001  4.000000e+000
    endloop
  endfacet
  facet normal  6.662099e-001 -7.457643e-001  0.000000e+000
    outer loop
      vertex  6.825236e+000 -3.086355e-001  0.000000e+000
      vertex  6.825236e+000 -3.086355e-001  4.000000e+000
      vertex  6.495718e+000 -6.030020e-001  0.000000e+000
    endloop
  endfacet
  facet normal  6.662099e-001 -7.457643e-001  0.000000e+000
    outer loop
      vertex  6.495718e+000 -6.030020e-001  0.000000e+000
      vertex  6.825236e+000 -3.086355e-001  4.000000e+000
      vertex  6.495718e+000 -6.030020e-001  4.000000e+000
    endloop
  endfacet
  facet normal  6.326163e-001 -7.744654e-001  0.000000e+000
    outer loop
      vertex  6.495718e+000 -6.030020e-001  0.000000e+000
      vertex  6.495718e+000 -6.030020e-001  4.000000e+000
      vertex  6.153519e+000 -8.825250e-001  0.000000e+000
    endloop
  endfacet
  facet normal  6.326163e-001 -7.744654e-001  0.000000e+000
    outer loop
      vertex  6.153519e+000 -8.825250e-001  0.000000e+000
      vertex  6.495718e+000 -6.030020e-001  4.000000e+000
      vertex  6.153519e+000 -8.825250e-001  4.000000e+000
    endloop
  endfacet
  facet normal  5.977875e-001 -8.016545e-001  0.000000e+000
    outer loop
      vertex  6.153519e+000 -8.825250e-001  0.000000e+000
      vertex  6.153519e+000 -8.825250e-001  4.000000e+000
      vertex  5.799306e+000 -1.146659e+000  0.000000e+000
    endloop
  endfacet
  facet normal  5.977875e-001 -8.016545e-001  0.000000e+000
    outer loop
      vertex  5.799306e+000 -1.146659e+000  0.000000e+000
      vertex  6.153519e+000 -8.825250e-001  4.000000e+000
      vertex  5.799306e+000 -1.146659e+000  4.000000e+000
    endloop
  endfacet
  facet normal  5.617908e-001 -8.272793e-001  0.000000e+000
    outer loop
      vertex  5.799306e+000 -1.146659e+000  0.000000e+000
      vertex  5.799306e+000 -1.146659e+000  4.000000e+000
      vertex  5.433771e+000 -1.394887e+000  0.000000e+000
    endloop
  endfacet
  facet normal  5.617908e-001 -8.272793e-001  0.000000e+000
    outer loop
      vertex  5.433771e+000 -1.394887e+000  0.000000e+000
      vertex  5.799306e+000 -1.146659e+000  4.000000e+000
      vertex  5.433771e+000 -1.394887e+000  4.000000e+000
    endloop
  endfacet
  facet normal  5.246979e-001 -8.512885e-001  0.000000e+000
    outer loop
      vertex  5.433771e+000 -1.394887e+000  0.000000e+000
      vertex  5.433771e+000 -1.394887e+000  4.000000e+000
      vertex  5.057627e+000 -1.626726e+000  0.000000e+000
    endloop
  endfacet
  facet normal  5.246979e-001 -8.512885e-001  0.000000e+000
    outer loop
      vertex  5.057627e+000 -1.626726e+000  0.000000e+000
      vertex  5.433771e+000 -1.394887e+000  4.000000e+000
      vertex  5.057627e+000 -1.626726e+000  4.000000e+000
    endloop
  endfacet
  facet normal  4.865806e-001 -8.736357e-001  0.000000e+000
    outer loop
      vertex  5.057627e+000 -1.626726e+000  0.000000e+000
      vertex  5.057627e+000 -1.626726e+000  4.000000e+000
      vertex  4.671609e+000 -1.841723e+000  0.000000e+000
    endloop
  endfacet
  facet normal  4.865806e-001 -8.736357e-001  0.000000e+000
    outer loop
      vertex  4.671609e+000 -1.841723e+000  0.000000e+000
      vertex  5.057627e+000 -1.626726e+000  4.000000e+000
      vertex  4.671609e+000 -1.841723e+000  4.000000e+000
    endloop
  endfacet
  facet normal  4.475136e-001 -8.942771e-001  0.000000e+000
    outer loop
      vertex  4.671609e+000 -1.841723e+000  0.000000e+000
      vertex  4.671609e+000 -1.841723e+000  4.000000e+000
      vertex  4.276471e+000 -2.039458e+000  0.000000e+000
    endloop
  endfacet
  facet normal  4.475136e-001 -8.942771e-001  0.000000e+000
    outer loop
      vertex  4.276471e+000 -2.039458e+000  0.000000e+000
      vertex  4.671609e+000 -1.841723e+000  4.000000e+000
      vertex  4.276471e+000 -2.039458e+000  4.000000e+000
    endloop
  endfacet
  facet normal  4.075719e-001 -9.131731e-001  0.000000e+000
    outer loop
      vertex  4.276471e+000 -2.039458e+000  0.000000e+000
      vertex  4.276471e+000 -2.039458e+000  4.000000e+000
      vertex  3.872983e+000 -2.219544e+000  0.000000e+000
    endloop
  endfacet
  facet normal  4.075719e-001 -9.131731e-001  0.000000e+000
    outer loop
      vertex  3.872983e+000 -2.219544e+000  0.000000e+000
      vertex  4.276471e+000 -2.039458e+000  4.000000e+000
      vertex  3.872983e+000 -2.219544e+000  4.000000e+000
    endloop
  endfacet
  facet normal  3.668355e-001 -9.302858e-001  0.000000e+000
    outer loop
      vertex  3.872983e+000 -2.219544e+000  0.000000e+000
      vertex  3.872983e+000 -2.219544e+000  4.000000e+000
      vertex  3.461934e+000 -2.381632e+000  0.000000e+000
    endloop
  endfacet
  facet normal  3.668355e-001 -9.302858e-001  0.000000e+000
    outer loop
      vertex  3.461934e+000 -2.381632e+000  0.000000e+000
      vertex  3.872983e+000 -2.219544e+000  4.000000e+000
      vertex  3.461934e+000 -2.381632e+000  4.000000e+000
    endloop
  endfacet
  facet normal  3.253824e-001 -9.455826e-001  0.000000e+000
    outer loop
      vertex  3.461934e+000 -2.381632e+000  0.000000e+000
      vertex  3.461934e+000 -2.381632e+000  4.000000e+000
      vertex  3.044127e+000 -2.525403e+000  0.000000e+000
    endloop
  endfacet
  facet normal  3.253824e-001 -9.455826e-001  0.000000e+000
    outer loop
      vertex  3.044127e+000 -2.525403e+000  0.000000e+000
      vertex  3.461934e+000 -2.381632e+000  4.000000e+000
      vertex  3.044127e+000 -2.525403e+000  4.000000e+000
    endloop
  endfacet
  facet normal  2.832944e-001 -9.590330e-001  0.000000e+000
    outer loop
      vertex  3.044127e+000 -2.525403e+000  0.000000e+000
      vertex  3.044127e+000 -2.525403e+000  4.000000e+000
      vertex  2.620376e+000 -2.650577e+000  0.000000e+000
    endloop
  endfacet
  facet normal  2.832944e-001 -9.590330e-001  0.000000e+000
    outer loop
      vertex  2.620376e+000 -2.650577e+000  0.000000e+000
      vertex  3.044127e+000 -2.525403e+000  4.000000e+000
      vertex  2.620376e+000 -2.650577e+000  4.000000e+000
    endloop
  endfacet
  facet normal  2.406529e-001 -9.706112e-001  0.000000e+000
    outer loop
      vertex  2.620376e+000 -2.650577e+000  0.000000e+000
      vertex  2.620376e+000 -2.650577e+000  4.000000e+000
      vertex  2.191509e+000 -2.756910e+000  0.000000e+000
    endloop
  endfacet
  facet normal  2.406529e-001 -9.706112e-001  0.000000e+000
    outer loop
      vertex  2.191509e+000 -2.756910e+000  0.000000e+000
      vertex  2.620376e+000 -2.650577e+000  4.000000e+000
      vertex  2.191509e+000 -2.756910e+000  4.000000e+000
    endloop
  endfacet
  facet normal  1.975418e-001 -9.802945e-001  0.000000e+000
    outer loop
      vertex  2.191509e+000 -2.756910e+000  0.000000e+000
      vertex  2.191509e+000 -2.756910e+000  4.000000e+000
      vertex  1.758364e+000 -2.844194e+000  0.000000e+000
    endloop
  endfacet
  facet normal  1.975418e-001 -9.802945e-001  0.000000e+000
    outer loop
      vertex  1.758364e+000 -2.844194e+000  0.000000e+000
      vertex  2.191509e+000 -2.756910e+000  4.000000e+000
      vertex  1.758364e+000 -2.844194e+000  4.000000e+000
    endloop
  endfacet
  facet normal  1.540451e-001 -9.880639e-001  0.000000e+000
    outer loop
      vertex  1.758364e+000 -2.844194e+000  0.000000e+000
      vertex  1.758364e+000 -2.844194e+000  4.000000e+000
      vertex  1.321785e+000 -2.912259e+000  0.000000e+000
    endloop
  endfacet
  facet normal  1.540451e-001 -9.880639e-001  0.000000e+000
    outer loop
      vertex  1.321785e+000 -2.912259e+000  0.000000e+000
      vertex  1.758364e+000 -2.844194e+000  4.000000e+000
      vertex  1.321785e+000 -2.912259e+000  4.000000e+000
    endloop
  endfacet
  facet normal  1.102472e-001 -9.939042e-001  0.000000e+000
    outer loop
      vertex  1.321785e+000 -2.912259e+000  0.000000e+000
      vertex  1.321785e+000 -2.912259e+000  4.000000e+000
      vertex  8.826265e-001 -2.960972e+000  0.000000e+000
    endloop
  endfacet
  facet normal  1.102472e-001 -9.939042e-001  0.000000e+000
    outer loop
      vertex  8.826265e-001 -2.960972e+000  0.000000e+000
      vertex  1.321785e+000 -2.912259e+000  4.000000e+000
      vertex  8.826265e-001 -2.960972e+000  4.000000e+000
    endloop
  endfacet
  facet normal  6.623507e-002 -9.978041e-001  0.000000e+000
    outer loop
      vertex  8.826265e-001 -2.960972e+000  0.000000e+000
      vertex  8.826265e-001 -2.960972e+000  4.000000e+000
      vertex  4.417444e-001 -2.990238e+000  0.000000e+000
    endloop
  endfacet
  facet normal  6.623507e-002 -9.978041e-001  0.000000e+000
    outer loop
      vertex  4.417444e-001 -2.990238e+000  0.000000e+000
      vertex  8.826265e-001 -2.960972e+000  4.000000e+000
      vertex  4.417444e-001 -2.990238e+000  4.000000e+000
    endloop
  endfacet
  facet normal  2.209239e-002 -9.997559e-001  0.000000e+000
    outer loop
      vertex  4.417444e-001 -2.990238e+000  0.000000e+000
      vertex  4.417444e-001 -2.990238e+000  4.000000e+000
      vertex -1.836910e-015 -3.000000e+000  0.000000e+000
    endloop
  endfacet
  facet normal  2.209239e-002 -9.997559e-001  0.000000e+000
    outer loop
      vertex -1.836910e-015 -3.000000e+000  0.000000e+000
      vertex  4.417444e-001 -2.990238e+000  4.000000e+000
      vertex -1.836910e-015 -3.000000e+000  4.000000e+000
    endloop
  endfacet
  facet normal -2.309775e-002 -9.997332e-001  -0.000000e+000
    outer loop
      vertex -1.836910e-015 -3.000000e+000  0.000000e+000
      vertex -1.836910e-015 -3.000000e+000  4.000000e+000
      vertex -4.618346e-001 -2.989330e+000  0.000000e+000
    endloop
  endfacet
  facet normal -2.309775e-002 -9.997332e-001  0.000000e+000
    outer loop
      vertex -4.618346e-001 -2.989330e+000  0.000000e+000
      vertex -1.836910e-015 -3.000000e+000  4.000000e+000
      vertex -4.618346e-001 -2.989330e+000  4.000000e+000
    endloop
  endfacet
  facet normal -6.924473e-002 -9.975998e-001  -0.000000e+000
    outer loop
      vertex -4.618346e-001 -2.989330e+000  0.000000e+000
      vertex -4.618346e-001 -2.989330e+000  4.000000e+000
      vertex -9.226836e-001 -2.957342e+000  0.000000e+000
    endloop
  endfacet
  facet normal -6.924473e-002 -9.975998e-001  0.000000e+000
    outer loop
      vertex -9.226836e-001 -2.957342e+000  0.000000e+000
      vertex -4.618346e-001 -2.989330e+000  4.000000e+000
      vertex -9.226836e-001 -2.957342e+000  4.000000e+000
    endloop
  endfacet
  facet normal -1.152431e-001 -9.933373e-001  -0.000000e+000
    outer loop
      vertex -9.226836e-001 -2.957342e+000  0.000000e+000
      vertex -9.226836e-001 -2.957342e+000  4.000000e+000
      vertex -1.381564e+000 -2.904104e+000  0.000000e+000
    endloop
  endfacet
  facet normal -1.152431e-001 -9.933373e-001  0.000000e+000
    outer loop
      vertex -1.381564e+000 -2.904104e+000  0.000000e+000
      vertex -9.226836e-001 -2.957342e+000  4.000000e+000
      vertex -1.381564e+000 -2.904104e+000  4.000000e+000
    endloop
  endfacet
  facet normal -1.609958e-001 -9.869552e-001  -0.000000e+000
    outer loop
      vertex -1.381564e+000 -2.904104e+000  0.000000e+000
      vertex -1.381564e+000 -2.904104e+000  4.000000e+000
      vertex -1.837495e+000 -2.829731e+000  0.000000e+000
    endloop
  endfacet
  facet normal -1.609958e-001 -9.869552e-001  0.000000e+000
    outer loop
      vertex -1.837495e+000 -2.829731e+000  0.000000e+000
      vertex -1.381564e+000 -2.904104e+000  4.000000e+000
      vertex -1.837495e+000 -2.829731e+000  4.000000e+000
    endloop
  endfacet
  facet normal -2.064052e-001 -9.784666e-001  -0.000000e+000
    outer loop
      vertex -1.837495e+000 -2.829731e+000  0.000000e+000
      vertex -1.837495e+000 -2.829731e+000  4.000000e+000
      vertex -2.289505e+000 -2.734380e+000  0.000000e+000
    endloop
  endfacet
  facet normal -2.064052e-001 -9.784666e-001  0.000000e+000
    outer loop
      vertex -2.289505e+000 -2.734380e+000  0.000000e+000
      vertex -1.837495e+000 -2.829731e+000  4.000000e+000
      vertex -2.289505e+000 -2.734380e+000  4.000000e+000
    endloop
  endfacet
  facet normal -2.513739e-001 -9.678901e-001  -0.000000e+000
    outer loop
      vertex -2.289505e+000 -2.734380e+000  0.000000e+000
      vertex -2.289505e+000 -2.734380e+000  4.000000e+000
      vertex -2.736630e+000 -2.618256e+000  0.000000e+000
    endloop
  endfacet
  facet normal -2.513739e-001 -9.678901e-001  0.000000e+000
    outer loop
      vertex -2.736630e+000 -2.618256e+000  0.000000e+000
      vertex -2.289505e+000 -2.734380e+000  4.000000e+000
      vertex -2.736630e+000 -2.618256e+000  4.000000e+000
    endloop
  endfacet
  facet normal -2.958060e-001 -9.552481e-001  -0.000000e+000
    outer loop
      vertex -2.736630e+000 -2.618256e+000  0.000000e+000
      vertex -2.736630e+000 -2.618256e+000  4.000000e+000
      vertex -3.177914e+000 -2.481606e+000  0.000000e+000
    endloop
  endfacet
  facet normal -2.958060e-001 -9.552481e-001  0.000000e+000
    outer loop
      vertex -3.177914e+000 -2.481606e+000  0.000000e+000
      vertex -2.736630e+000 -2.618256e+000  4.000000e+000
      vertex -3.177914e+000 -2.481606e+000  4.000000e+000
    endloop
  endfacet
  facet normal -3.396071e-001 -9.405674e-001  -0.000000e+000
    outer loop
      vertex -3.177914e+000 -2.481606e+000  0.000000e+000
      vertex -3.177914e+000 -2.481606e+000  4.000000e+000
      vertex -3.612417e+000 -2.324722e+000  0.000000e+000
    endloop
  endfacet
  facet normal -3.396071e-001 -9.405674e-001  0.000000e+000
    outer loop
      vertex -3.612417e+000 -2.324722e+000  0.000000e+000
      vertex -3.177914e+000 -2.481606e+000  4.000000e+000
      vertex -3.612417e+000 -2.324722e+000  4.000000e+000
    endloop
  endfacet
  facet normal -3.826835e-001 -9.238794e-001  -0.000000e+000
    outer loop
      vertex -3.612417e+000 -2.324722e+000  0.000000e+000
      vertex -3.612417e+000 -2.324722e+000  4.000000e+000
      vertex -4.039210e+000 -2.147939e+000  0.000000e+000
    endloop
  endfacet
  facet normal -3.826835e-001 -9.238794e-001  0.000000e+000
    outer loop
      vertex -4.039210e+000 -2.147939e+000  0.000000e+000
      vertex -3.612417e+000 -2.324722e+000  4.000000e+000
      vertex -4.039210e+000 -2.147939e+000  4.000000e+000
    endloop
  endfacet
  facet normal -4.249430e-001 -9.052201e-001  -0.000000e+000
    outer loop
      vertex -4.039210e+000 -2.147939e+000  0.000000e+000
      vertex -4.039210e+000 -2.147939e+000  4.000000e+000
      vertex -4.457384e+000 -1.951633e+000  0.000000e+000
    endloop
  endfacet
  facet normal -4.249430e-001 -9.052201e-001  0.000000e+000
    outer loop
      vertex -4.457384e+000 -1.951633e+000  0.000000e+000
      vertex -4.039210e+000 -2.147939e+000  4.000000e+000
      vertex -4.457384e+000 -1.951633e+000  4.000000e+000
    endloop
  endfacet
  facet normal -4.662955e-001 -8.846290e-001  -0.000000e+000
    outer loop
      vertex -4.457384e+000 -1.951633e+000  0.000000e+000
      vertex -4.457384e+000 -1.951633e+000  4.000000e+000
      vertex -4.866045e+000 -1.736224e+000  0.000000e+000
    endloop
  endfacet
  facet normal -4.662955e-001 -8.846290e-001  0.000000e+000
    outer loop
      vertex -4.866045e+000 -1.736224e+000  0.000000e+000
      vertex -4.457384e+000 -1.951633e+000  4.000000e+000
      vertex -4.866045e+000 -1.736224e+000  4.000000e+000
    endloop
  endfacet
  facet normal -5.066535e-001 -8.621498e-001  -0.000000e+000
    outer loop
      vertex -4.866045e+000 -1.736224e+000  0.000000e+000
      vertex -4.866045e+000 -1.736224e+000  4.000000e+000
      vertex -5.264322e+000 -1.502171e+000  0.000000e+000
    endloop
  endfacet
  facet normal -5.066535e-001 -8.621498e-001  0.000000e+000
    outer loop
      vertex -5.264322e+000 -1.502171e+000  0.000000e+000
      vertex -4.866045e+000 -1.736224e+000  4.000000e+000
      vertex -5.264322e+000 -1.502171e+000  4.000000e+000
    endloop
  endfacet
  facet normal -5.459300e-001 -8.378308e-001  -0.000000e+000
    outer loop
      vertex -5.264322e+000 -1.502171e+000  0.000000e+000
      vertex -5.264322e+000 -1.502171e+000  4.000000e+000
      vertex -5.651364e+000 -1.249975e+000  0.000000e+000
    endloop
  endfacet
  facet normal -5.459300e-001 -8.378308e-001  0.000000e+000
    outer loop
      vertex -5.651364e+000 -1.249975e+000  0.000000e+000
      vertex -5.264322e+000 -1.502171e+000  4.000000e+000
      vertex -5.651364e+000 -1.249975e+000  4.000000e+000
    endloop
  endfacet
  facet normal -5.840417e-001 -8.117236e-001  -0.000000e+000
    outer loop
      vertex -5.651364e+000 -1.249975e+000  0.000000e+000
      vertex -5.651364e+000 -1.249975e+000  4.000000e+000
      vertex -6.026346e+000 -9.801723e-001  0.000000e+000
    endloop
  endfacet
  facet normal -5.840417e-001 -8.117236e-001  0.000000e+000
    outer loop
      vertex -6.026346e+000 -9.801723e-001  0.000000e+000
      vertex -5.651364e+000 -1.249975e+000  4.000000e+000
      vertex -6.026346e+000 -9.801723e-001  4.000000e+000
    endloop
  endfacet
  facet normal -6.209060e-001 -7.838850e-001  -0.000000e+000
    outer loop
      vertex -6.026346e+000 -9.801723e-001  0.000000e+000
      vertex -6.026346e+000 -9.801723e-001  4.000000e+000
      vertex -6.388468e+000 -6.933397e-001  0.000000e+000
    endloop
  endfacet
  facet normal -6.209060e-001 -7.838850e-001  0.000000e+000
    outer loop
      vertex -6.388468e+000 -6.933397e-001  0.000000e+000
      vertex -6.026346e+000 -9.801723e-001  4.000000e+000
      vertex -6.388468e+000 -6.933397e-001  4.000000e+000
    endloop
  endfacet
  facet normal -6.564464e-001 -7.543727e-001  -0.000000e+000
    outer loop
      vertex -6.388468e+000 -6.933397e-001  0.000000e+000
      vertex -6.388468e+000 -6.933397e-001  4.000000e+000
      vertex -6.736957e+000 -3.900892e-001  0.000000e+000
    endloop
  endfacet
  facet normal -6.564464e-001 -7.543727e-001  0.000000e+000
    outer loop
      vertex -6.736957e+000 -3.900892e-001  0.000000e+000
      vertex -6.388468e+000 -6.933397e-001  4.000000e+000
      vertex -6.736957e+000 -3.900892e-001  4.000000e+000
    endloop
  endfacet
  facet normal -6.905857e-001 -7.232506e-001  -0.000000e+000
    outer loop
      vertex -6.736957e+000 -3.900892e-001  0.000000e+000
      vertex -6.736957e+000 -3.900892e-001  4.000000e+000
      vertex -7.071068e+000 -7.106781e-002  0.000000e+000
    endloop
  endfacet
  facet normal -6.905857e-001 -7.232506e-001  0.000000e+000
    outer loop
      vertex -7.071068e+000 -7.106781e-002  0.000000e+000
      vertex -6.736957e+000 -3.900892e-001  4.000000e+000
      vertex -7.071068e+000 -7.106781e-002  4.000000e+000
    endloop
  endfacet
  facet normal -7.232510e-001 -6.905853e-001  -0.000000e+000
    outer loop
      vertex -7.071068e+000 -7.106781e-002  0.000000e+000
      vertex -7.071068e+000 -7.106781e-002  4.000000e+000
      vertex -7.390089e+000  2.630436e-001  0.000000e+000
    endloop
  endfacet
  facet normal -7.232510e-001 -6.905853e-001  0.000000e+000
    outer loop
      vertex -7.390089e+000  2.630436e-001  0.000000e+000
      vertex -7.071068e+000 -7.106781e-002  4.000000e+000
      vertex -7.390089e+000  2.630436e-001  4.000000e+000
    endloop
  endfacet
  facet normal -7.543725e-001 -6.564466e-001  -0.000000e+000
    outer loop
      vertex -7.390089e+000  2.630436e-001  0.000000e+000
      vertex -7.390089e+000  2.630436e-001  4.000000e+000
      vertex -7.693340e+000  6.115320e-001  0.000000e+000
    endloop
  endfacet
  facet normal -7.543725e-001 -6.564466e-001  0.000000e+000
    outer loop
      vertex -7.693340e+000  6.115320e-001  0.000000e+000
      vertex -7.390089e+000  2.630436e-001  4.000000e+000
      vertex -7.693340e+000  6.115320e-001  4.000000e+000
    endloop
  endfacet
  facet normal -7.838850e-001 -6.209062e-001  -0.000000e+000
    outer loop
      vertex -7.693340e+000  6.115320e-001  0.000000e+000
      vertex -7.693340e+000  6.115320e-001  4.000000e+000
      vertex -7.980172e+000  9.736536e-001  0.000000e+000
    endloop
  endfacet
  facet normal -7.838850e-001 -6.209062e-001  0.000000e+000
    outer loop
      vertex -7.980172e+000  9.736536e-001  0.000000e+000
      vertex -7.693340e+000  6.115320e-001  4.000000e+000
      vertex -7.980172e+000  9.736536e-001  4.000000e+000
    endloop
  endfacet
  facet normal -8.117234e-001 -5.840421e-001  -0.000000e+000
    outer loop
      vertex -7.980172e+000  9.736536e-001  0.000000e+000
      vertex -7.980172e+000  9.736536e-001  4.000000e+000
      vertex -8.249975e+000  1.348636e+000  0.000000e+000
    endloop
  endfacet
  facet normal -8.117234e-001 -5.840421e-001  0.000000e+000
    outer loop
      vertex -8.249975e+000  1.348636e+000  0.000000e+000
      vertex -7.980172e+000  9.736536e-001  4.000000e+000
      vertex -8.249975e+000  1.348636e+000  4.000000e+000
    endloop
  endfacet
  facet normal -8.378311e-001 -5.459296e-001  -0.000000e+000
    outer loop
      vertex -8.249975e+000  1.348636e+000  0.000000e+000
      vertex -8.249975e+000  1.348636e+000  4.000000e+000
      vertex -8.502172e+000  1.735678e+000  0.000000e+000
    endloop
  endfacet
  facet normal -8.378311e-001 -5.459296e-001  0.000000e+000
    outer loop
      vertex -8.502172e+000  1.735678e+000  0.000000e+000
      vertex -8.249975e+000  1.348636e+000  4.000000e+000
      vertex -8.502172e+000  1.735678e+000  4.000000e+000
    endloop
  endfacet
  facet normal -8.621497e-001 -5.066535e-001  -0.000000e+000
    outer loop
      vertex -8.502172e+000  1.735678e+000  0.000000e+000
      vertex -8.502172e+000  1.735678e+000  4.000000e+000
      vertex -8.736224e+000  2.133955e+000  0.000000e+000
    endloop
  endfacet
  facet normal -8.621497e-001 -5.066535e-001  0.000000e+000
    outer loop
      vertex -8.736224e+000  2.133955e+000  0.000000e+000
      vertex -8.502172e+000  1.735678e+000  4.000000e+000
      vertex -8.736224e+000  2.133955e+000  4.000000e+000
    endloop
  endfacet
  facet normal -8.846294e-001 -4.662948e-001  -0.000000e+000
    outer loop
      vertex -8.736224e+000  2.133955e+000  0.000000e+000
      vertex -8.736224e+000  2.133955e+000  4.000000e+000
      vertex -8.951632e+000  2.542616e+000  0.000000e+000
    endloop
  endfacet
  facet normal -8.846294e-001 -4.662948e-001  0.000000e+000
    outer loop
      vertex -8.951632e+000  2.542616e+000  0.000000e+000
      vertex -8.736224e+000  2.133955e+000  4.000000e+000
      vertex -8.951632e+000  2.542616e+000  4.000000e+000
    endloop
  endfacet
  facet normal -9.052197e-001 -4.249438e-001  -0.000000e+000
    outer loop
      vertex -8.951632e+000  2.542616e+000  0.000000e+000
      vertex -8.951632e+000  2.542616e+000  4.000000e+000
      vertex -9.147939e+000  2.960790e+000  0.000000e+000
    endloop
  endfacet
  facet normal -9.052197e-001 -4.249438e-001  0.000000e+000
    outer loop
      vertex -9.147939e+000  2.960790e+000  0.000000e+000
      vertex -8.951632e+000  2.542616e+000  4.000000e+000
      vertex -9.147939e+000  2.960790e+000  4.000000e+000
    endloop
  endfacet
  facet normal -9.238796e-001 -3.826834e-001  -0.000000e+000
    outer loop
      vertex -9.147939e+000  2.960790e+000  0.000000e+000
      vertex -9.147939e+000  2.960790e+000  4.000000e+000
      vertex -9.324722e+000  3.387583e+000  0.000000e+000
    endloop
  endfacet
  facet normal -9.238796e-001 -3.826834e-001  0.000000e+000
    outer loop
      vertex -9.324722e+000  3.387583e+000  0.000000e+000
      vertex -9.147939e+000  2.960790e+000  4.000000e+000
      vertex -9.324722e+000  3.387583e+000  4.000000e+000
    endloop
  endfacet
  facet normal -9.405674e-001 -3.396071e-001  -0.000000e+000
    outer loop
      vertex -9.324722e+000  3.387583e+000  0.000000e+000
      vertex -9.324722e+000  3.387583e+000  4.000000e+000
      vertex -9.481606e+000  3.822086e+000  0.000000e+000
    endloop
  endfacet
  facet normal -9.405674e-001 -3.396071e-001  0.000000e+000
    outer loop
      vertex -9.481606e+000  3.822086e+000  0.000000e+000
      vertex -9.324722e+000  3.387583e+000  4.000000e+000
      vertex -9.481606e+000  3.822086e+000  4.000000e+000
    endloop
  endfacet
  facet normal -9.552479e-001 -2.958064e-001  -0.000000e+000
    outer loop
      vertex -9.481606e+000  3.822086e+000  0.000000e+000
      vertex -9.481606e+000  3.822086e+000  4.000000e+000
      vertex -9.618257e+000  4.263370e+000  0.000000e+000
    endloop
  endfacet
  facet normal -9.552479e-001 -2.958064e-001  0.000000e+000
    outer loop
      vertex -9.618257e+000  4.263370e+000  0.000000e+000
      vertex -9.481606e+000  3.822086e+000  4.000000e+000
      vertex -9.618257e+000  4.263370e+000  4.000000e+000
    endloop
  endfacet
  facet normal -9.678901e-001 -2.513739e-001  -0.000000e+000
    outer loop
      vertex -9.618257e+000  4.263370e+000  0.000000e+000
      vertex -9.618257e+000  4.263370e+000  4.000000e+000
      vertex -9.734381e+000  4.710495e+000  0.000000e+000
    endloop
  endfacet
  facet normal -9.678901e-001 -2.513739e-001  0.000000e+000
    outer loop
      vertex -9.734381e+000  4.710495e+000  0.000000e+000
      vertex -9.618257e+000  4.263370e+000  4.000000e+000
      vertex -9.734381e+000  4.710495e+000  4.000000e+000
    endloop
  endfacet
  facet normal -9.784667e-001 -2.064048e-001  -0.000000e+000
    outer loop
      vertex -9.734381e+000  4.710495e+000  0.000000e+000
      vertex -9.734381e+000  4.710495e+000  4.000000e+000
      vertex -9.829731e+000  5.162505e+000  0.000000e+000
    endloop
  endfacet
  facet normal -9.784667e-001 -2.064048e-001  0.000000e+000
    outer loop
      vertex -9.829731e+000  5.162505e+000  0.000000e+000
      vertex -9.734381e+000  4.710495e+000  4.000000e+000
      vertex -9.829731e+000  5.162505e+000  4.000000e+000
    endloop
  endfacet
  facet normal -9.869552e-001 -1.609958e-001  -0.000000e+000
    outer loop
      vertex -9.829731e+000  5.162505e+000  0.000000e+000
      vertex -9.829731e+000  5.162505e+000  4.000000e+000
      vertex -9.904104e+000  5.618436e+000  0.000000e+000
    endloop
  endfacet
  facet normal -9.869552e-001 -1.609958e-001  0.000000e+000
    outer loop
      vertex -9.904104e+000  5.618436e+000  0.000000e+000
      vertex -9.829731e+000  5.162505e+000  4.000000e+000
      vertex -9.904104e+000  5.618436e+000  4.000000e+000
    endloop
  endfacet
  facet normal -9.933372e-001 -1.152441e-001  -0.000000e+000
    outer loop
      vertex -9.904104e+000  5.618436e+000  0.000000e+000
      vertex -9.904104e+000  5.618436e+000  4.000000e+000
      vertex -9.957342e+000  6.077316e+000  0.000000e+000
    endloop
  endfacet
  facet normal -9.933372e-001 -1.152441e-001  0.000000e+000
    outer loop
      vertex -9.957342e+000  6.077316e+000  0.000000e+000
      vertex -9.904104e+000  5.618436e+000  4.000000e+000
      vertex -9.957342e+000  6.077316e+000  4.000000e+000
    endloop
  endfacet
  facet normal -9.975998e-001 -6.924263e-002  -0.000000e+000
    outer loop
      vertex -9.957342e+000  6.077316e+000  0.000000e+000
      vertex -9.957342e+000  6.077316e+000  4.000000e+000
      vertex -9.989329e+000  6.538166e+000  0.000000e+000
    endloop
  endfacet
  facet normal -9.975998e-001 -6.924263e-002  0.000000e+000
    outer loop
      vertex -9.989329e+000  6.538166e+000  0.000000e+000
      vertex -9.957342e+000  6.077316e+000  4.000000e+000
      vertex -9.989329e+000  6.538166e+000  4.000000e+000
    endloop
  endfacet
  facet normal -9.997332e-001 -2.309879e-002  -0.000000e+000
    outer loop
      vertex -9.989329e+000  6.538166e+000  0.000000e+000
      vertex -9.989329e+000  6.538166e+000  4.000000e+000
      vertex -1.000000e+001  7.000000e+000  0.000000e+000
    endloop
  endfacet
  facet normal -9.997332e-001 -2.309879e-002  0.000000e+000
    outer loop
      vertex -1.000000e+001  7.000000e+000  0.000000e+000
      vertex -9.989329e+000  6.538166e+000  4.000000e+000
      vertex -1.000000e+001  7.000000e+000  4.000000e+000
    endloop
  endfacet
  facet normal  0.000000e+000  1.000000e+000  0.000000e+000
    outer loop
      vertex -7.000000e+000  7.000000e+000  0.000000e+000
      vertex -1.000000e+001  7.000000e+000  0.000000e+000
      vertex -7.000000e+000  7.000000e+000  4.000000e+000
    endloop
  endfacet
  facet normal  0.000000e+000  1.000000e+000  0.000000e+000
    outer loop
      vertex -7.000000e+000  7.000000e+000  4.000000e+000
      vertex -1.000000e+001  7.000000e+000  0.000000e+000
      vertex -1.000000e+001  7.000000e+000  4.000000e+000
    endloop
  endfacet
endsolid CATIA STL
