solid CATIA STL
  facet normal  0.000000e+000  0.000000e+000 -1.000000e+000
    outer loop
      vertex -2.500000e+001 -6.000000e+000  0.000000e+000
      vertex -2.500000e+001  6.000000e+000  0.000000e+000
      vertex  2.500000e+001 -6.000000e+000  0.000000e+000
    endloop
  endfacet
  facet normal  0.000000e+000  0.000000e+000 -1.000000e+000
    outer loop
      vertex  2.500000e+001 -6.000000e+000  0.000000e+000
      vertex -2.500000e+001  6.000000e+000  0.000000e+000
      vertex  2.500000e+001  6.000000e+000  0.000000e+000
    endloop
  endfacet
  facet normal  0.000000e+000  0.000000e+000  1.000000e+000
    outer loop
      vertex  2.500000e+001 -8.500000e-001  6.000000e+000
      vertex  2.500000e+001  6.000000e+000  6.000000e+000
      vertex -1.670000e+001  6.000000e+000  6.000000e+000
    endloop
  endfacet
  facet normal  0.000000e+000  0.000000e+000  9.999999e-001
    outer loop
      vertex  2.500000e+001 -8.500000e-001  6.000000e+000
      vertex -1.670000e+001  6.000000e+000  6.000000e+000
      vertex -1.668922e+001  5.615917e+000  6.000000e+000
    endloop
  endfacet
  facet normal  0.000000e+000  0.000000e+000  1.000000e+000
    outer loop
      vertex  2.500000e+001 -8.500000e-001  6.000000e+000
      vertex -1.668922e+001  5.615917e+000  6.000000e+000
      vertex -1.665693e+001  5.233043e+000  6.000000e+000
    endloop
  endfacet
  facet normal  0.000000e+000  0.000000e+000  1.000000e+000
    outer loop
      vertex  2.500000e+001 -8.500000e-001  6.000000e+000
      vertex -1.665693e+001  5.233043e+000  6.000000e+000
      vertex -1.660322e+001  4.852582e+000  6.000000e+000
    endloop
  endfacet
  facet normal  0.000000e+000  0.000000e+000  1.000000e+000
    outer loop
      vertex  2.500000e+001 -8.500000e-001  6.000000e+000
      vertex -1.660322e+001  4.852582e+000  6.000000e+000
      vertex -1.652826e+001  4.475731e+000  6.000000e+000
    endloop
  endfacet
  facet normal  0.000000e+000  0.000000e+000  9.999999e-001
    outer loop
      vertex  2.500000e+001 -8.500000e-001  6.000000e+000
      vertex -1.652826e+001  4.475731e+000  6.000000e+000
      vertex -1.643228e+001  4.103677e+000  6.000000e+000
    endloop
  endfacet
  facet normal  0.000000e+000  0.000000e+000  9.999999e-001
    outer loop
      vertex  2.500000e+001 -8.500000e-001  6.000000e+000
      vertex -1.643228e+001  4.103677e+000  6.000000e+000
      vertex -1.631560e+001  3.737588e+000  6.000000e+000
    endloop
  endfacet
  facet normal  0.000000e+000  0.000000e+000  1.000000e+000
    outer loop
      vertex  2.500000e+001 -8.500000e-001  6.000000e+000
      vertex -1.631560e+001  3.737588e+000  6.000000e+000
      vertex -1.617858e+001  3.378618e+000  6.000000e+000
    endloop
  endfacet
  facet normal  0.000000e+000  0.000000e+000  1.000000e+000
    outer loop
      vertex  2.500000e+001 -8.500000e-001  6.000000e+000
      vertex -1.617858e+001  3.378618e+000  6.000000e+000
      vertex -1.602164e+001  3.027896e+000  6.000000e+000
    endloop
  endfacet
  facet normal  0.000000e+000  0.000000e+000  1.000000e+000
    outer loop
      vertex  2.500000e+001 -8.500000e-001  6.000000e+000
      vertex -1.602164e+001  3.027896e+000  6.000000e+000
      vertex -1.584528e+001  2.686526e+000  6.000000e+000
    endloop
  endfacet
  facet normal  0.000000e+000  0.000000e+000  1.000000e+000
    outer loop
      vertex  2.500000e+001 -8.500000e-001  6.000000e+000
      vertex -1.584528e+001  2.686526e+000  6.000000e+000
      vertex -1.565006e+001  2.355580e+000  6.000000e+000
    endloop
  endfacet
  facet normal  0.000000e+000  0.000000e+000  1.000000e+000
    outer loop
      vertex  2.500000e+001 -8.500000e-001  6.000000e+000
      vertex -1.565006e+001  2.355580e+000  6.000000e+000
      vertex -1.543659e+001  2.036102e+000  6.000000e+000
    endloop
  endfacet
  facet normal  0.000000e+000  0.000000e+000  9.999999e-001
    outer loop
      vertex  2.500000e+001 -8.500000e-001  6.000000e+000
      vertex -1.543659e+001  2.036102e+000  6.000000e+000
      vertex -1.520555e+001  1.729095e+000  6.000000e+000
    endloop
  endfacet
  facet normal  0.000000e+000  0.000000e+000  1.000000e+000
    outer loop
      vertex  2.500000e+001 -8.500000e-001  6.000000e+000
      vertex -1.520555e+001  1.729095e+000  6.000000e+000
      vertex -1.495765e+001  1.435526e+000  6.000000e+000
    endloop
  endfacet
  facet normal  0.000000e+000  0.000000e+000  1.000000e+000
    outer loop
      vertex  2.500000e+001 -8.500000e-001  6.000000e+000
      vertex -1.495765e+001  1.435526e+000  6.000000e+000
      vertex -1.469368e+001  1.156319e+000  6.000000e+000
    endloop
  endfacet
  facet normal  0.000000e+000  0.000000e+000  1.000000e+000
    outer loop
      vertex  2.500000e+001 -8.500000e-001  6.000000e+000
      vertex -1.469368e+001  1.156319e+000  6.000000e+000
      vertex -1.441447e+001  8.923512e-001  6.000000e+000
    endloop
  endfacet
  facet normal  0.000000e+000  0.000000e+000  1.000000e+000
    outer loop
      vertex  2.500000e+001 -8.500000e-001  6.000000e+000
      vertex -1.441447e+001  8.923512e-001  6.000000e+000
      vertex -1.412090e+001  6.444544e-001  6.000000e+000
    endloop
  endfacet
  facet normal  0.000000e+000  0.000000e+000  1.000000e+000
    outer loop
      vertex  2.500000e+001 -8.500000e-001  6.000000e+000
      vertex -1.412090e+001  6.444544e-001  6.000000e+000
      vertex -1.381390e+001  4.134080e-001  6.000000e+000
    endloop
  endfacet
  facet normal  0.000000e+000  0.000000e+000  1.000000e+000
    outer loop
      vertex  2.500000e+001 -8.500000e-001  6.000000e+000
      vertex -1.381390e+001  4.134080e-001  6.000000e+000
      vertex -1.349442e+001  1.999392e-001  6.000000e+000
    endloop
  endfacet
  facet normal  0.000000e+000  0.000000e+000  1.000000e+000
    outer loop
      vertex  2.500000e+001 -8.500000e-001  6.000000e+000
      vertex -1.349442e+001  1.999392e-001  6.000000e+000
      vertex -1.316347e+001  4.719560e-003  6.000000e+000
    endloop
  endfacet
  facet normal  0.000000e+000  0.000000e+000  1.000000e+000
    outer loop
      vertex  2.500000e+001 -8.500000e-001  6.000000e+000
      vertex -1.316347e+001  4.719560e-003  6.000000e+000
      vertex -1.282210e+001 -1.716367e-001  6.000000e+000
    endloop
  endfacet
  facet normal  0.000000e+000  0.000000e+000  1.000000e+000
    outer loop
      vertex  2.500000e+001 -8.500000e-001  6.000000e+000
      vertex -1.282210e+001 -1.716367e-001  6.000000e+000
      vertex -1.247138e+001 -3.285748e-001  6.000000e+000
    endloop
  endfacet
  facet normal  0.000000e+000  0.000000e+000  1.000000e+000
    outer loop
      vertex  2.500000e+001 -8.500000e-001  6.000000e+000
      vertex -1.247138e+001 -3.285748e-001  6.000000e+000
      vertex -1.211241e+001 -4.656008e-001  6.000000e+000
    endloop
  endfacet
  facet normal  0.000000e+000  0.000000e+000  1.000000e+000
    outer loop
      vertex  2.500000e+001 -8.500000e-001  6.000000e+000
      vertex -1.211241e+001 -4.656008e-001  6.000000e+000
      vertex -1.174632e+001 -5.822837e-001  6.000000e+000
    endloop
  endfacet
  facet normal  0.000000e+000  0.000000e+000  1.000000e+000
    outer loop
      vertex  2.500000e+001 -8.500000e-001  6.000000e+000
      vertex -1.174632e+001 -5.822837e-001  6.000000e+000
      vertex -1.137427e+001 -6.782562e-001  6.000000e+000
    endloop
  endfacet
  facet normal  0.000000e+000  0.000000e+000  1.000000e+000
    outer loop
      vertex  2.500000e+001 -8.500000e-001  6.000000e+000
      vertex -1.137427e+001 -6.782562e-001  6.000000e+000
      vertex -1.099742e+001 -7.532165e-001  6.000000e+000
    endloop
  endfacet
  facet normal  0.000000e+000  0.000000e+000  1.000000e+000
    outer loop
      vertex  2.500000e+001 -8.500000e-001  6.000000e+000
      vertex -1.099742e+001 -7.532165e-001  6.000000e+000
      vertex -1.061696e+001 -8.069286e-001  6.000000e+000
    endloop
  endfacet
  facet normal  0.000000e+000  0.000000e+000  1.000000e+000
    outer loop
      vertex  2.500000e+001 -8.500000e-001  6.000000e+000
      vertex -1.061696e+001 -8.069286e-001  6.000000e+000
      vertex -1.023408e+001 -8.392237e-001  6.000000e+000
    endloop
  endfacet
  facet normal  0.000000e+000  0.000000e+000  1.000000e+000
    outer loop
      vertex  2.500000e+001 -8.500000e-001  6.000000e+000
      vertex -1.023408e+001 -8.392237e-001  6.000000e+000
      vertex -9.850000e+000 -8.500000e-001  6.000000e+000
    endloop
  endfacet
  facet normal  -0.000000e+000  1.000000e+000  0.000000e+000
    outer loop
      vertex  2.500000e+001  6.000000e+000  0.000000e+000
      vertex -1.670000e+001  6.000000e+000  6.000000e+000
      vertex  2.500000e+001  6.000000e+000  6.000000e+000
    endloop
  endfacet
  facet normal  0.000000e+000  1.000000e+000  0.000000e+000
    outer loop
      vertex -1.670000e+001  6.000000e+000  6.000000e+000
      vertex  2.500000e+001  6.000000e+000  0.000000e+000
      vertex -1.670000e+001  6.000000e+000  2.000000e+000
    endloop
  endfacet
  facet normal  0.000000e+000  1.000000e+000  0.000000e+000
    outer loop
      vertex -1.670000e+001  6.000000e+000  2.000000e+000
      vertex  2.500000e+001  6.000000e+000  0.000000e+000
      vertex -2.500000e+001  6.000000e+000  0.000000e+000
    endloop
  endfacet
  facet normal  0.000000e+000  1.000000e+000  0.000000e+000
    outer loop
      vertex -1.670000e+001  6.000000e+000  2.000000e+000
      vertex -2.500000e+001  6.000000e+000  0.000000e+000
      vertex -2.000000e+001  6.000000e+000  2.000000e+000
    endloop
  endfacet
  facet normal  0.000000e+000  1.000000e+000  0.000000e+000
    outer loop
      vertex -2.000000e+001  6.000000e+000  2.000000e+000
      vertex -2.500000e+001  6.000000e+000  0.000000e+000
      vertex -2.500000e+001  6.000000e+000  6.000000e+000
    endloop
  endfacet
  facet normal  -0.000000e+000  1.000000e+000  0.000000e+000
    outer loop
      vertex -2.000000e+001  6.000000e+000  2.000000e+000
      vertex -2.500000e+001  6.000000e+000  6.000000e+000
      vertex -2.000000e+001  6.000000e+000  6.000000e+000
    endloop
  endfacet
  facet normal  1.000000e+000  0.000000e+000  0.000000e+000
    outer loop
      vertex  2.500000e+001  6.000000e+000  0.000000e+000
      vertex  2.500000e+001  6.000000e+000  6.000000e+000
      vertex  2.500000e+001 -8.500000e-001  6.000000e+000
    endloop
  endfacet
  facet normal  1.000000e+000  0.000000e+000  0.000000e+000
    outer loop
      vertex  2.500000e+001  6.000000e+000  0.000000e+000
      vertex  2.500000e+001 -8.500000e-001  6.000000e+000
      vertex  2.500000e+001 -8.500000e-001  2.000000e+000
    endloop
  endfacet
  facet normal  1.000000e+000  0.000000e+000  0.000000e+000
    outer loop
      vertex  2.500000e+001  6.000000e+000  0.000000e+000
      vertex  2.500000e+001 -8.500000e-001  2.000000e+000
      vertex  2.500000e+001 -4.150000e+000  2.000000e+000
    endloop
  endfacet
  facet normal  1.000000e+000  0.000000e+000  0.000000e+000
    outer loop
      vertex  2.500000e+001  6.000000e+000  0.000000e+000
      vertex  2.500000e+001 -4.150000e+000  2.000000e+000
      vertex  2.500000e+001 -6.000000e+000  0.000000e+000
    endloop
  endfacet
  facet normal  1.000000e+000  -0.000000e+000  0.000000e+000
    outer loop
      vertex  2.500000e+001 -4.150000e+000  6.000000e+000
      vertex  2.500000e+001 -6.000000e+000  6.000000e+000
      vertex  2.500000e+001 -4.150000e+000  2.000000e+000
    endloop
  endfacet
  facet normal  1.000000e+000  0.000000e+000  0.000000e+000
    outer loop
      vertex  2.500000e+001 -4.150000e+000  2.000000e+000
      vertex  2.500000e+001 -6.000000e+000  6.000000e+000
      vertex  2.500000e+001 -6.000000e+000  0.000000e+000
    endloop
  endfacet
  facet normal  0.000000e+000 -1.000000e+000  0.000000e+000
    outer loop
      vertex  2.500000e+001 -8.500000e-001  6.000000e+000
      vertex -9.850000e+000 -8.500000e-001  6.000000e+000
      vertex  2.500000e+001 -8.500000e-001  2.000000e+000
    endloop
  endfacet
  facet normal  0.000000e+000 -1.000000e+000  0.000000e+000
    outer loop
      vertex  2.500000e+001 -8.500000e-001  2.000000e+000
      vertex -9.850000e+000 -8.500000e-001  6.000000e+000
      vertex -9.850000e+000 -8.500000e-001  2.000000e+000
    endloop
  endfacet
  facet normal -2.804637e-002 -9.996067e-001  -0.000000e+000
    outer loop
      vertex -9.850000e+000 -8.500000e-001  2.000000e+000
      vertex -9.850000e+000 -8.500000e-001  6.000000e+000
      vertex -1.023408e+001 -8.392237e-001  2.000000e+000
    endloop
  endfacet
  facet normal -2.804637e-002 -9.996067e-001  0.000000e+000
    outer loop
      vertex -1.023408e+001 -8.392237e-001  2.000000e+000
      vertex -9.850000e+000 -8.500000e-001  6.000000e+000
      vertex -1.023408e+001 -8.392237e-001  6.000000e+000
    endloop
  endfacet
  facet normal -8.405045e-002 -9.964615e-001  -0.000000e+000
    outer loop
      vertex -1.023408e+001 -8.392237e-001  2.000000e+000
      vertex -1.023408e+001 -8.392237e-001  6.000000e+000
      vertex -1.061696e+001 -8.069286e-001  2.000000e+000
    endloop
  endfacet
  facet normal -8.405045e-002 -9.964615e-001  0.000000e+000
    outer loop
      vertex -1.061696e+001 -8.069286e-001  2.000000e+000
      vertex -1.023408e+001 -8.392237e-001  6.000000e+000
      vertex -1.061696e+001 -8.069286e-001  6.000000e+000
    endloop
  endfacet
  facet normal -1.397903e-001 -9.901811e-001  -0.000000e+000
    outer loop
      vertex -1.061696e+001 -8.069286e-001  2.000000e+000
      vertex -1.061696e+001 -8.069286e-001  6.000000e+000
      vertex -1.099742e+001 -7.532165e-001  2.000000e+000
    endloop
  endfacet
  facet normal -1.397903e-001 -9.901811e-001  0.000000e+000
    outer loop
      vertex -1.099742e+001 -7.532165e-001  2.000000e+000
      vertex -1.061696e+001 -8.069286e-001  6.000000e+000
      vertex -1.099742e+001 -7.532165e-001  6.000000e+000
    endloop
  endfacet
  facet normal -1.950902e-001 -9.807853e-001  -0.000000e+000
    outer loop
      vertex -1.099742e+001 -7.532165e-001  2.000000e+000
      vertex -1.099742e+001 -7.532165e-001  6.000000e+000
      vertex -1.137427e+001 -6.782562e-001  2.000000e+000
    endloop
  endfacet
  facet normal -1.950902e-001 -9.807853e-001  0.000000e+000
    outer loop
      vertex -1.137427e+001 -6.782562e-001  2.000000e+000
      vertex -1.099742e+001 -7.532165e-001  6.000000e+000
      vertex -1.137427e+001 -6.782562e-001  6.000000e+000
    endloop
  endfacet
  facet normal -2.497763e-001 -9.683035e-001  -0.000000e+000
    outer loop
      vertex -1.137427e+001 -6.782562e-001  2.000000e+000
      vertex -1.137427e+001 -6.782562e-001  6.000000e+000
      vertex -1.174632e+001 -5.822837e-001  2.000000e+000
    endloop
  endfacet
  facet normal -2.497763e-001 -9.683035e-001  0.000000e+000
    outer loop
      vertex -1.174632e+001 -5.822837e-001  2.000000e+000
      vertex -1.137427e+001 -6.782562e-001  6.000000e+000
      vertex -1.174632e+001 -5.822837e-001  6.000000e+000
    endloop
  endfacet
  facet normal -3.036771e-001 -9.527750e-001  -0.000000e+000
    outer loop
      vertex -1.174632e+001 -5.822837e-001  2.000000e+000
      vertex -1.174632e+001 -5.822837e-001  6.000000e+000
      vertex -1.211241e+001 -4.656008e-001  2.000000e+000
    endloop
  endfacet
  facet normal -3.036771e-001 -9.527750e-001  0.000000e+000
    outer loop
      vertex -1.211241e+001 -4.656008e-001  2.000000e+000
      vertex -1.174632e+001 -5.822837e-001  6.000000e+000
      vertex -1.211241e+001 -4.656008e-001  6.000000e+000
    endloop
  endfacet
  facet normal -3.566217e-001 -9.342489e-001  -0.000000e+000
    outer loop
      vertex -1.211241e+001 -4.656008e-001  2.000000e+000
      vertex -1.211241e+001 -4.656008e-001  6.000000e+000
      vertex -1.247138e+001 -3.285748e-001  2.000000e+000
    endloop
  endfacet
  facet normal -3.566217e-001 -9.342489e-001  0.000000e+000
    outer loop
      vertex -1.247138e+001 -3.285748e-001  2.000000e+000
      vertex -1.211241e+001 -4.656008e-001  6.000000e+000
      vertex -1.247138e+001 -3.285748e-001  6.000000e+000
    endloop
  endfacet
  facet normal -4.084440e-001 -9.127833e-001  -0.000000e+000
    outer loop
      vertex -1.247138e+001 -3.285748e-001  2.000000e+000
      vertex -1.247138e+001 -3.285748e-001  6.000000e+000
      vertex -1.282210e+001 -1.716367e-001  2.000000e+000
    endloop
  endfacet
  facet normal -4.084440e-001 -9.127833e-001  0.000000e+000
    outer loop
      vertex -1.282210e+001 -1.716367e-001  2.000000e+000
      vertex -1.247138e+001 -3.285748e-001  6.000000e+000
      vertex -1.282210e+001 -1.716367e-001  6.000000e+000
    endloop
  endfacet
  facet normal -4.589821e-001 -8.884456e-001  -0.000000e+000
    outer loop
      vertex -1.282210e+001 -1.716367e-001  2.000000e+000
      vertex -1.282210e+001 -1.716367e-001  6.000000e+000
      vertex -1.316347e+001  4.719560e-003  2.000000e+000
    endloop
  endfacet
  facet normal -4.589821e-001 -8.884456e-001  0.000000e+000
    outer loop
      vertex -1.316347e+001  4.719560e-003  2.000000e+000
      vertex -1.282210e+001 -1.716367e-001  6.000000e+000
      vertex -1.316347e+001  4.719560e-003  6.000000e+000
    endloop
  endfacet
  facet normal -5.080746e-001 -8.613130e-001  -0.000000e+000
    outer loop
      vertex -1.316347e+001  4.719560e-003  2.000000e+000
      vertex -1.316347e+001  4.719560e-003  6.000000e+000
      vertex -1.349442e+001  1.999392e-001  2.000000e+000
    endloop
  endfacet
  facet normal -5.080746e-001 -8.613130e-001  0.000000e+000
    outer loop
      vertex -1.349442e+001  1.999392e-001  2.000000e+000
      vertex -1.316347e+001  4.719560e-003  6.000000e+000
      vertex -1.349442e+001  1.999392e-001  6.000000e+000
    endloop
  endfacet
  facet normal -5.555709e-001 -8.314691e-001  -0.000000e+000
    outer loop
      vertex -1.349442e+001  1.999392e-001  2.000000e+000
      vertex -1.349442e+001  1.999392e-001  6.000000e+000
      vertex -1.381390e+001  4.134080e-001  2.000000e+000
    endloop
  endfacet
  facet normal -5.555709e-001 -8.314691e-001  0.000000e+000
    outer loop
      vertex -1.381390e+001  4.134080e-001  2.000000e+000
      vertex -1.349442e+001  1.999392e-001  6.000000e+000
      vertex -1.381390e+001  4.134080e-001  6.000000e+000
    endloop
  endfacet
  facet normal -6.013170e-001 -7.990105e-001  -0.000000e+000
    outer loop
      vertex -1.381390e+001  4.134080e-001  2.000000e+000
      vertex -1.381390e+001  4.134080e-001  6.000000e+000
      vertex -1.412090e+001  6.444544e-001  2.000000e+000
    endloop
  endfacet
  facet normal -6.013170e-001 -7.990105e-001  0.000000e+000
    outer loop
      vertex -1.412090e+001  6.444544e-001  2.000000e+000
      vertex -1.381390e+001  4.134080e-001  6.000000e+000
      vertex -1.412090e+001  6.444544e-001  6.000000e+000
    endloop
  endfacet
  facet normal -6.451710e-001 -7.640381e-001  -0.000000e+000
    outer loop
      vertex -1.412090e+001  6.444544e-001  2.000000e+000
      vertex -1.412090e+001  6.444544e-001  6.000000e+000
      vertex -1.441447e+001  8.923512e-001  2.000000e+000
    endloop
  endfacet
  facet normal -6.451710e-001 -7.640381e-001  0.000000e+000
    outer loop
      vertex -1.441447e+001  8.923512e-001  2.000000e+000
      vertex -1.412090e+001  6.444544e-001  6.000000e+000
      vertex -1.441447e+001  8.923512e-001  6.000000e+000
    endloop
  endfacet
  facet normal -6.869972e-001 -7.266601e-001  -0.000000e+000
    outer loop
      vertex -1.441447e+001  8.923512e-001  2.000000e+000
      vertex -1.441447e+001  8.923512e-001  6.000000e+000
      vertex -1.469368e+001  1.156319e+000  2.000000e+000
    endloop
  endfacet
  facet normal -6.869972e-001 -7.266601e-001  0.000000e+000
    outer loop
      vertex -1.469368e+001  1.156319e+000  2.000000e+000
      vertex -1.441447e+001  8.923512e-001  6.000000e+000
      vertex -1.469368e+001  1.156319e+000  6.000000e+000
    endloop
  endfacet
  facet normal -7.266601e-001 -6.869972e-001  -0.000000e+000
    outer loop
      vertex -1.469368e+001  1.156319e+000  2.000000e+000
      vertex -1.469368e+001  1.156319e+000  6.000000e+000
      vertex -1.495765e+001  1.435526e+000  2.000000e+000
    endloop
  endfacet
  facet normal -7.266601e-001 -6.869972e-001  0.000000e+000
    outer loop
      vertex -1.495765e+001  1.435526e+000  2.000000e+000
      vertex -1.469368e+001  1.156319e+000  6.000000e+000
      vertex -1.495765e+001  1.435526e+000  6.000000e+000
    endloop
  endfacet
  facet normal -7.640382e-001 -6.451709e-001  -0.000000e+000
    outer loop
      vertex -1.495765e+001  1.435526e+000  2.000000e+000
      vertex -1.495765e+001  1.435526e+000  6.000000e+000
      vertex -1.520555e+001  1.729095e+000  2.000000e+000
    endloop
  endfacet
  facet normal -7.640382e-001 -6.451709e-001  0.000000e+000
    outer loop
      vertex -1.520555e+001  1.729095e+000  2.000000e+000
      vertex -1.495765e+001  1.435526e+000  6.000000e+000
      vertex -1.520555e+001  1.729095e+000  6.000000e+000
    endloop
  endfacet
  facet normal -7.990099e-001 -6.013178e-001  -0.000000e+000
    outer loop
      vertex -1.520555e+001  1.729095e+000  2.000000e+000
      vertex -1.520555e+001  1.729095e+000  6.000000e+000
      vertex -1.543659e+001  2.036102e+000  2.000000e+000
    endloop
  endfacet
  facet normal -7.990099e-001 -6.013178e-001  0.000000e+000
    outer loop
      vertex -1.543659e+001  2.036102e+000  2.000000e+000
      vertex -1.520555e+001  1.729095e+000  6.000000e+000
      vertex -1.543659e+001  2.036102e+000  6.000000e+000
    endloop
  endfacet
  facet normal -8.314700e-001 -5.555696e-001  -0.000000e+000
    outer loop
      vertex -1.543659e+001  2.036102e+000  2.000000e+000
      vertex -1.543659e+001  2.036102e+000  6.000000e+000
      vertex -1.565006e+001  2.355580e+000  2.000000e+000
    endloop
  endfacet
  facet normal -8.314700e-001 -5.555696e-001  0.000000e+000
    outer loop
      vertex -1.565006e+001  2.355580e+000  2.000000e+000
      vertex -1.543659e+001  2.036102e+000  6.000000e+000
      vertex -1.565006e+001  2.355580e+000  6.000000e+000
    endloop
  endfacet
  facet normal -8.613122e-001 -5.080760e-001  -0.000000e+000
    outer loop
      vertex -1.565006e+001  2.355580e+000  2.000000e+000
      vertex -1.565006e+001  2.355580e+000  6.000000e+000
      vertex -1.584528e+001  2.686526e+000  2.000000e+000
    endloop
  endfacet
  facet normal -8.613122e-001 -5.080760e-001  0.000000e+000
    outer loop
      vertex -1.584528e+001  2.686526e+000  2.000000e+000
      vertex -1.565006e+001  2.355580e+000  6.000000e+000
      vertex -1.584528e+001  2.686526e+000  6.000000e+000
    endloop
  endfacet
  facet normal -8.884456e-001 -4.589818e-001  -0.000000e+000
    outer loop
      vertex -1.584528e+001  2.686526e+000  2.000000e+000
      vertex -1.584528e+001  2.686526e+000  6.000000e+000
      vertex -1.602164e+001  3.027896e+000  2.000000e+000
    endloop
  endfacet
  facet normal -8.884456e-001 -4.589818e-001  0.000000e+000
    outer loop
      vertex -1.602164e+001  3.027896e+000  2.000000e+000
      vertex -1.584528e+001  2.686526e+000  6.000000e+000
      vertex -1.602164e+001  3.027896e+000  6.000000e+000
    endloop
  endfacet
  facet normal -9.127828e-001 -4.084454e-001  -0.000000e+000
    outer loop
      vertex -1.602164e+001  3.027896e+000  2.000000e+000
      vertex -1.602164e+001  3.027896e+000  6.000000e+000
      vertex -1.617858e+001  3.378618e+000  2.000000e+000
    endloop
  endfacet
  facet normal -9.127828e-001 -4.084454e-001  0.000000e+000
    outer loop
      vertex -1.617858e+001  3.378618e+000  2.000000e+000
      vertex -1.602164e+001  3.027896e+000  6.000000e+000
      vertex -1.617858e+001  3.378618e+000  6.000000e+000
    endloop
  endfacet
  facet normal -9.342491e-001 -3.566211e-001  -0.000000e+000
    outer loop
      vertex -1.617858e+001  3.378618e+000  2.000000e+000
      vertex -1.617858e+001  3.378618e+000  6.000000e+000
      vertex -1.631560e+001  3.737588e+000  2.000000e+000
    endloop
  endfacet
  facet normal -9.342491e-001 -3.566211e-001  0.000000e+000
    outer loop
      vertex -1.631560e+001  3.737588e+000  2.000000e+000
      vertex -1.617858e+001  3.378618e+000  6.000000e+000
      vertex -1.631560e+001  3.737588e+000  6.000000e+000
    endloop
  endfacet
  facet normal -9.527757e-001 -3.036748e-001  -0.000000e+000
    outer loop
      vertex -1.631560e+001  3.737588e+000  2.000000e+000
      vertex -1.631560e+001  3.737588e+000  6.000000e+000
      vertex -1.643228e+001  4.103677e+000  2.000000e+000
    endloop
  endfacet
  facet normal -9.527757e-001 -3.036748e-001  0.000000e+000
    outer loop
      vertex -1.643228e+001  4.103677e+000  2.000000e+000
      vertex -1.631560e+001  3.737588e+000  6.000000e+000
      vertex -1.643228e+001  4.103677e+000  6.000000e+000
    endloop
  endfacet
  facet normal -9.683038e-001 -2.497755e-001  -0.000000e+000
    outer loop
      vertex -1.643228e+001  4.103677e+000  2.000000e+000
      vertex -1.643228e+001  4.103677e+000  6.000000e+000
      vertex -1.652826e+001  4.475731e+000  2.000000e+000
    endloop
  endfacet
  facet normal -9.683038e-001 -2.497755e-001  0.000000e+000
    outer loop
      vertex -1.652826e+001  4.475731e+000  2.000000e+000
      vertex -1.643228e+001  4.103677e+000  6.000000e+000
      vertex -1.652826e+001  4.475731e+000  6.000000e+000
    endloop
  endfacet
  facet normal -9.807851e-001 -1.950912e-001  -0.000000e+000
    outer loop
      vertex -1.652826e+001  4.475731e+000  2.000000e+000
      vertex -1.652826e+001  4.475731e+000  6.000000e+000
      vertex -1.660322e+001  4.852582e+000  2.000000e+000
    endloop
  endfacet
  facet normal -9.807851e-001 -1.950912e-001  0.000000e+000
    outer loop
      vertex -1.660322e+001  4.852582e+000  2.000000e+000
      vertex -1.652826e+001  4.475731e+000  6.000000e+000
      vertex -1.660322e+001  4.852582e+000  6.000000e+000
    endloop
  endfacet
  facet normal -9.901808e-001 -1.397922e-001  -0.000000e+000
    outer loop
      vertex -1.660322e+001  4.852582e+000  2.000000e+000
      vertex -1.660322e+001  4.852582e+000  6.000000e+000
      vertex -1.665693e+001  5.233043e+000  2.000000e+000
    endloop
  endfacet
  facet normal -9.901808e-001 -1.397922e-001  0.000000e+000
    outer loop
      vertex -1.665693e+001  5.233043e+000  2.000000e+000
      vertex -1.660322e+001  4.852582e+000  6.000000e+000
      vertex -1.665693e+001  5.233043e+000  6.000000e+000
    endloop
  endfacet
  facet normal -9.964615e-001 -8.405101e-002  -0.000000e+000
    outer loop
      vertex -1.665693e+001  5.233043e+000  2.000000e+000
      vertex -1.665693e+001  5.233043e+000  6.000000e+000
      vertex -1.668922e+001  5.615917e+000  2.000000e+000
    endloop
  endfacet
  facet normal -9.964615e-001 -8.405101e-002  0.000000e+000
    outer loop
      vertex -1.668922e+001  5.615917e+000  2.000000e+000
      vertex -1.665693e+001  5.233043e+000  6.000000e+000
      vertex -1.668922e+001  5.615917e+000  6.000000e+000
    endloop
  endfacet
  facet normal -9.996066e-001 -2.804677e-002  -0.000000e+000
    outer loop
      vertex -1.668922e+001  5.615917e+000  2.000000e+000
      vertex -1.668922e+001  5.615917e+000  6.000000e+000
      vertex -1.670000e+001  6.000000e+000  2.000000e+000
    endloop
  endfacet
  facet normal -9.996066e-001 -2.804677e-002  0.000000e+000
    outer loop
      vertex -1.670000e+001  6.000000e+000  2.000000e+000
      vertex -1.668922e+001  5.615917e+000  6.000000e+000
      vertex -1.670000e+001  6.000000e+000  6.000000e+000
    endloop
  endfacet
  facet normal  0.000000e+000  0.000000e+000  1.000000e+000
    outer loop
      vertex -1.749368e+001 -6.780781e-001  2.000000e+000
      vertex -1.137427e+001 -6.782562e-001  2.000000e+000
      vertex -1.174632e+001 -5.822837e-001  2.000000e+000
    endloop
  endfacet
  facet normal  0.000000e+000  0.000000e+000  9.999999e-001
    outer loop
      vertex -1.749368e+001 -6.780781e-001  2.000000e+000
      vertex -1.174632e+001 -5.822837e-001  2.000000e+000
      vertex -1.211241e+001 -4.656008e-001  2.000000e+000
    endloop
  endfacet
  facet normal  0.000000e+000  0.000000e+000  1.000000e+000
    outer loop
      vertex -1.749368e+001 -6.780781e-001  2.000000e+000
      vertex -1.211241e+001 -4.656008e-001  2.000000e+000
      vertex -1.247138e+001 -3.285748e-001  2.000000e+000
    endloop
  endfacet
  facet normal  0.000000e+000  0.000000e+000  1.000000e+000
    outer loop
      vertex -1.749368e+001 -6.780781e-001  2.000000e+000
      vertex -1.247138e+001 -3.285748e-001  2.000000e+000
      vertex -1.778559e+001 -3.284215e-001  2.000000e+000
    endloop
  endfacet
  facet normal  0.000000e+000  -0.000000e+000  1.000000e+000
    outer loop
      vertex -1.718637e+001 -1.014286e+000  2.000000e+000
      vertex  2.500000e+001 -4.150000e+000  2.000000e+000
      vertex  2.500000e+001 -8.500000e-001  2.000000e+000
    endloop
  endfacet
  facet normal  0.000000e+000  0.000000e+000  1.000000e+000
    outer loop
      vertex -1.718637e+001 -1.014286e+000  2.000000e+000
      vertex  2.500000e+001 -8.500000e-001  2.000000e+000
      vertex -9.850000e+000 -8.500000e-001  2.000000e+000
    endloop
  endfacet
  facet normal  0.000000e+000  0.000000e+000  1.000000e+000
    outer loop
      vertex -1.718637e+001 -1.014286e+000  2.000000e+000
      vertex -9.850000e+000 -8.500000e-001  2.000000e+000
      vertex -1.023408e+001 -8.392237e-001  2.000000e+000
    endloop
  endfacet
  facet normal  0.000000e+000  0.000000e+000  1.000000e+000
    outer loop
      vertex -1.718637e+001 -1.014286e+000  2.000000e+000
      vertex -1.023408e+001 -8.392237e-001  2.000000e+000
      vertex -1.061696e+001 -8.069286e-001  2.000000e+000
    endloop
  endfacet
  facet normal  0.000000e+000  0.000000e+000  1.000000e+000
    outer loop
      vertex -1.718637e+001 -1.014286e+000  2.000000e+000
      vertex -1.061696e+001 -8.069286e-001  2.000000e+000
      vertex -1.099742e+001 -7.532165e-001  2.000000e+000
    endloop
  endfacet
  facet normal  0.000000e+000  0.000000e+000  1.000000e+000
    outer loop
      vertex -1.718637e+001 -1.014286e+000  2.000000e+000
      vertex -1.099742e+001 -7.532165e-001  2.000000e+000
      vertex -1.137427e+001 -6.782562e-001  2.000000e+000
    endloop
  endfacet
  facet normal  0.000000e+000  0.000000e+000  1.000000e+000
    outer loop
      vertex -1.718637e+001 -1.014286e+000  2.000000e+000
      vertex -1.137427e+001 -6.782562e-001  2.000000e+000
      vertex -1.749368e+001 -6.780781e-001  2.000000e+000
    endloop
  endfacet
  facet normal  0.000000e+000  0.000000e+000  1.000000e+000
    outer loop
      vertex  2.500000e+001 -4.150000e+000  2.000000e+000
      vertex -1.718637e+001 -1.014286e+000  2.000000e+000
      vertex -1.686429e+001 -1.336368e+000  2.000000e+000
    endloop
  endfacet
  facet normal  0.000000e+000  0.000000e+000  1.000000e+000
    outer loop
      vertex  2.500000e+001 -4.150000e+000  2.000000e+000
      vertex -1.686429e+001 -1.336368e+000  2.000000e+000
      vertex -1.652808e+001 -1.643675e+000  2.000000e+000
    endloop
  endfacet
  facet normal  0.000000e+000  0.000000e+000  1.000000e+000
    outer loop
      vertex  2.500000e+001 -4.150000e+000  2.000000e+000
      vertex -1.652808e+001 -1.643675e+000  2.000000e+000
      vertex -1.617842e+001 -1.935590e+000  2.000000e+000
    endloop
  endfacet
  facet normal  0.000000e+000  0.000000e+000  1.000000e+000
    outer loop
      vertex  2.500000e+001 -4.150000e+000  2.000000e+000
      vertex -1.617842e+001 -1.935590e+000  2.000000e+000
      vertex -1.581602e+001 -2.211523e+000  2.000000e+000
    endloop
  endfacet
  facet normal  0.000000e+000  0.000000e+000  1.000000e+000
    outer loop
      vertex  2.500000e+001 -4.150000e+000  2.000000e+000
      vertex -1.581602e+001 -2.211523e+000  2.000000e+000
      vertex -1.544160e+001 -2.470918e+000  2.000000e+000
    endloop
  endfacet
  facet normal  0.000000e+000  0.000000e+000  1.000000e+000
    outer loop
      vertex  2.500000e+001 -4.150000e+000  2.000000e+000
      vertex -1.544160e+001 -2.470918e+000  2.000000e+000
      vertex -1.505593e+001 -2.713255e+000  2.000000e+000
    endloop
  endfacet
  facet normal  0.000000e+000  0.000000e+000  1.000000e+000
    outer loop
      vertex  2.500000e+001 -4.150000e+000  2.000000e+000
      vertex -1.505593e+001 -2.713255e+000  2.000000e+000
      vertex -1.465977e+001 -2.938045e+000  2.000000e+000
    endloop
  endfacet
  facet normal  0.000000e+000  0.000000e+000  1.000000e+000
    outer loop
      vertex  2.500000e+001 -4.150000e+000  2.000000e+000
      vertex -1.465977e+001 -2.938045e+000  2.000000e+000
      vertex -1.425392e+001 -3.144834e+000  2.000000e+000
    endloop
  endfacet
  facet normal  0.000000e+000  0.000000e+000  1.000000e+000
    outer loop
      vertex  2.500000e+001 -4.150000e+000  2.000000e+000
      vertex -1.425392e+001 -3.144834e+000  2.000000e+000
      vertex -1.383920e+001 -3.333207e+000  2.000000e+000
    endloop
  endfacet
  facet normal  0.000000e+000  0.000000e+000  1.000000e+000
    outer loop
      vertex  2.500000e+001 -4.150000e+000  2.000000e+000
      vertex -1.383920e+001 -3.333207e+000  2.000000e+000
      vertex -1.341645e+001 -3.502784e+000  2.000000e+000
    endloop
  endfacet
  facet normal  0.000000e+000  0.000000e+000  1.000000e+000
    outer loop
      vertex  2.500000e+001 -4.150000e+000  2.000000e+000
      vertex -1.341645e+001 -3.502784e+000  2.000000e+000
      vertex -1.298652e+001 -3.653224e+000  2.000000e+000
    endloop
  endfacet
  facet normal  0.000000e+000  0.000000e+000  1.000000e+000
    outer loop
      vertex  2.500000e+001 -4.150000e+000  2.000000e+000
      vertex -1.298652e+001 -3.653224e+000  2.000000e+000
      vertex -1.255027e+001 -3.784223e+000  2.000000e+000
    endloop
  endfacet
  facet normal  0.000000e+000  0.000000e+000  1.000000e+000
    outer loop
      vertex  2.500000e+001 -4.150000e+000  2.000000e+000
      vertex -1.255027e+001 -3.784223e+000  2.000000e+000
      vertex -1.210859e+001 -3.895518e+000  2.000000e+000
    endloop
  endfacet
  facet normal  0.000000e+000  0.000000e+000  1.000000e+000
    outer loop
      vertex  2.500000e+001 -4.150000e+000  2.000000e+000
      vertex -1.210859e+001 -3.895518e+000  2.000000e+000
      vertex -1.166235e+001 -3.986885e+000  2.000000e+000
    endloop
  endfacet
  facet normal  0.000000e+000  0.000000e+000  1.000000e+000
    outer loop
      vertex  2.500000e+001 -4.150000e+000  2.000000e+000
      vertex -1.166235e+001 -3.986885e+000  2.000000e+000
      vertex -1.121247e+001 -4.058140e+000  2.000000e+000
    endloop
  endfacet
  facet normal  0.000000e+000  0.000000e+000  1.000000e+000
    outer loop
      vertex  2.500000e+001 -4.150000e+000  2.000000e+000
      vertex -1.121247e+001 -4.058140e+000  2.000000e+000
      vertex -1.075984e+001 -4.109139e+000  2.000000e+000
    endloop
  endfacet
  facet normal  0.000000e+000  0.000000e+000  1.000000e+000
    outer loop
      vertex  2.500000e+001 -4.150000e+000  2.000000e+000
      vertex -1.075984e+001 -4.109139e+000  2.000000e+000
      vertex -1.030538e+001 -4.139780e+000  2.000000e+000
    endloop
  endfacet
  facet normal  0.000000e+000  0.000000e+000  1.000000e+000
    outer loop
      vertex  2.500000e+001 -4.150000e+000  2.000000e+000
      vertex -1.030538e+001 -4.139780e+000  2.000000e+000
      vertex -9.850000e+000 -4.150000e+000  2.000000e+000
    endloop
  endfacet
  facet normal  -0.000000e+000  0.000000e+000  9.999999e-001
    outer loop
      vertex -1.670000e+001  6.000000e+000  2.000000e+000
      vertex -2.000000e+001  6.000000e+000  2.000000e+000
      vertex -1.668922e+001  5.615917e+000  2.000000e+000
    endloop
  endfacet
  facet normal  0.000000e+000  0.000000e+000  1.000000e+000
    outer loop
      vertex -1.668922e+001  5.615917e+000  2.000000e+000
      vertex -2.000000e+001  6.000000e+000  2.000000e+000
      vertex -1.998978e+001  5.544622e+000  2.000000e+000
    endloop
  endfacet
  facet normal  -0.000000e+000  0.000000e+000  1.000000e+000
    outer loop
      vertex -1.668922e+001  5.615917e+000  2.000000e+000
      vertex -1.998978e+001  5.544622e+000  2.000000e+000
      vertex -1.665693e+001  5.233043e+000  2.000000e+000
    endloop
  endfacet
  facet normal  0.000000e+000  0.000000e+000  1.000000e+000
    outer loop
      vertex -1.665693e+001  5.233043e+000  2.000000e+000
      vertex -1.998978e+001  5.544622e+000  2.000000e+000
      vertex -1.995914e+001  5.090161e+000  2.000000e+000
    endloop
  endfacet
  facet normal  -0.000000e+000  0.000000e+000  1.000000e+000
    outer loop
      vertex -1.665693e+001  5.233043e+000  2.000000e+000
      vertex -1.995914e+001  5.090161e+000  2.000000e+000
      vertex -1.660322e+001  4.852582e+000  2.000000e+000
    endloop
  endfacet
  facet normal  0.000000e+000  0.000000e+000  1.000000e+000
    outer loop
      vertex -1.660322e+001  4.852582e+000  2.000000e+000
      vertex -1.995914e+001  5.090161e+000  2.000000e+000
      vertex -1.990814e+001  4.637532e+000  2.000000e+000
    endloop
  endfacet
  facet normal  -0.000000e+000  0.000000e+000  1.000000e+000
    outer loop
      vertex -1.660322e+001  4.852582e+000  2.000000e+000
      vertex -1.990814e+001  4.637532e+000  2.000000e+000
      vertex -1.652826e+001  4.475731e+000  2.000000e+000
    endloop
  endfacet
  facet normal  0.000000e+000  0.000000e+000  1.000000e+000
    outer loop
      vertex -1.652826e+001  4.475731e+000  2.000000e+000
      vertex -1.990814e+001  4.637532e+000  2.000000e+000
      vertex -1.643228e+001  4.103677e+000  2.000000e+000
    endloop
  endfacet
  facet normal  0.000000e+000  0.000000e+000  1.000000e+000
    outer loop
      vertex -1.643228e+001  4.103677e+000  2.000000e+000
      vertex -1.990814e+001  4.637532e+000  2.000000e+000
      vertex -1.983689e+001  4.187647e+000  2.000000e+000
    endloop
  endfacet
  facet normal  0.000000e+000  0.000000e+000  1.000000e+000
    outer loop
      vertex -1.643228e+001  4.103677e+000  2.000000e+000
      vertex -1.983689e+001  4.187647e+000  2.000000e+000
      vertex -1.631560e+001  3.737588e+000  2.000000e+000
    endloop
  endfacet
  facet normal  0.000000e+000  0.000000e+000  9.999999e-001
    outer loop
      vertex -1.631560e+001  3.737588e+000  2.000000e+000
      vertex -1.983689e+001  4.187647e+000  2.000000e+000
      vertex -1.974552e+001  3.741412e+000  2.000000e+000
    endloop
  endfacet
  facet normal  0.000000e+000  0.000000e+000  1.000000e+000
    outer loop
      vertex -1.631560e+001  3.737588e+000  2.000000e+000
      vertex -1.974552e+001  3.741412e+000  2.000000e+000
      vertex -1.617858e+001  3.378618e+000  2.000000e+000
    endloop
  endfacet
  facet normal  0.000000e+000  0.000000e+000  1.000000e+000
    outer loop
      vertex -1.617858e+001  3.378618e+000  2.000000e+000
      vertex -1.974552e+001  3.741412e+000  2.000000e+000
      vertex -1.963422e+001  3.299726e+000  2.000000e+000
    endloop
  endfacet
  facet normal  -0.000000e+000  0.000000e+000  1.000000e+000
    outer loop
      vertex -1.617858e+001  3.378618e+000  2.000000e+000
      vertex -1.963422e+001  3.299726e+000  2.000000e+000
      vertex -1.602164e+001  3.027896e+000  2.000000e+000
    endloop
  endfacet
  facet normal  0.000000e+000  0.000000e+000  1.000000e+000
    outer loop
      vertex -1.602164e+001  3.027896e+000  2.000000e+000
      vertex -1.963422e+001  3.299726e+000  2.000000e+000
      vertex -1.950322e+001  2.863477e+000  2.000000e+000
    endloop
  endfacet
  facet normal  -0.000000e+000  0.000000e+000  1.000000e+000
    outer loop
      vertex -1.602164e+001  3.027896e+000  2.000000e+000
      vertex -1.950322e+001  2.863477e+000  2.000000e+000
      vertex -1.584528e+001  2.686526e+000  2.000000e+000
    endloop
  endfacet
  facet normal  0.000000e+000  0.000000e+000  1.000000e+000
    outer loop
      vertex -1.584528e+001  2.686526e+000  2.000000e+000
      vertex -1.950322e+001  2.863477e+000  2.000000e+000
      vertex -1.935278e+001  2.433546e+000  2.000000e+000
    endloop
  endfacet
  facet normal  -0.000000e+000  0.000000e+000  1.000000e+000
    outer loop
      vertex -1.584528e+001  2.686526e+000  2.000000e+000
      vertex -1.935278e+001  2.433546e+000  2.000000e+000
      vertex -1.565006e+001  2.355580e+000  2.000000e+000
    endloop
  endfacet
  facet normal  0.000000e+000  0.000000e+000  1.000000e+000
    outer loop
      vertex -1.565006e+001  2.355580e+000  2.000000e+000
      vertex -1.935278e+001  2.433546e+000  2.000000e+000
      vertex -1.543659e+001  2.036102e+000  2.000000e+000
    endloop
  endfacet
  facet normal  0.000000e+000  0.000000e+000  1.000000e+000
    outer loop
      vertex -1.543659e+001  2.036102e+000  2.000000e+000
      vertex -1.935278e+001  2.433546e+000  2.000000e+000
      vertex -1.918321e+001  2.010796e+000  2.000000e+000
    endloop
  endfacet
  facet normal  -0.000000e+000  0.000000e+000  1.000000e+000
    outer loop
      vertex -1.543659e+001  2.036102e+000  2.000000e+000
      vertex -1.918321e+001  2.010796e+000  2.000000e+000
      vertex -1.520555e+001  1.729095e+000  2.000000e+000
    endloop
  endfacet
  facet normal  0.000000e+000  0.000000e+000  9.999999e-001
    outer loop
      vertex -1.520555e+001  1.729095e+000  2.000000e+000
      vertex -1.918321e+001  2.010796e+000  2.000000e+000
      vertex -1.899483e+001  1.596080e+000  2.000000e+000
    endloop
  endfacet
  facet normal  -0.000000e+000  0.000000e+000  9.999999e-001
    outer loop
      vertex -1.520555e+001  1.729095e+000  2.000000e+000
      vertex -1.899483e+001  1.596080e+000  2.000000e+000
      vertex -1.495765e+001  1.435526e+000  2.000000e+000
    endloop
  endfacet
  facet normal  0.000000e+000  0.000000e+000  9.999999e-001
    outer loop
      vertex -1.495765e+001  1.435526e+000  2.000000e+000
      vertex -1.899483e+001  1.596080e+000  2.000000e+000
      vertex -1.878804e+001  1.190233e+000  2.000000e+000
    endloop
  endfacet
  facet normal  -0.000000e+000  0.000000e+000  1.000000e+000
    outer loop
      vertex -1.495765e+001  1.435526e+000  2.000000e+000
      vertex -1.878804e+001  1.190233e+000  2.000000e+000
      vertex -1.469368e+001  1.156319e+000  2.000000e+000
    endloop
  endfacet
  facet normal  0.000000e+000  0.000000e+000  1.000000e+000
    outer loop
      vertex -1.469368e+001  1.156319e+000  2.000000e+000
      vertex -1.878804e+001  1.190233e+000  2.000000e+000
      vertex -1.441447e+001  8.923512e-001  2.000000e+000
    endloop
  endfacet
  facet normal  0.000000e+000  0.000000e+000  1.000000e+000
    outer loop
      vertex -1.441447e+001  8.923512e-001  2.000000e+000
      vertex -1.878804e+001  1.190233e+000  2.000000e+000
      vertex -1.856326e+001  7.940723e-001  2.000000e+000
    endloop
  endfacet
  facet normal  -0.000000e+000  0.000000e+000  1.000000e+000
    outer loop
      vertex -1.441447e+001  8.923512e-001  2.000000e+000
      vertex -1.856326e+001  7.940723e-001  2.000000e+000
      vertex -1.412090e+001  6.444544e-001  2.000000e+000
    endloop
  endfacet
  facet normal  0.000000e+000  0.000000e+000  1.000000e+000
    outer loop
      vertex -1.412090e+001  6.444544e-001  2.000000e+000
      vertex -1.856326e+001  7.940723e-001  2.000000e+000
      vertex -1.832092e+001  4.083956e-001  2.000000e+000
    endloop
  endfacet
  facet normal  0.000000e+000  0.000000e+000  1.000000e+000
    outer loop
      vertex -1.412090e+001  6.444544e-001  2.000000e+000
      vertex -1.832092e+001  4.083956e-001  2.000000e+000
      vertex -1.381390e+001  4.134080e-001  2.000000e+000
    endloop
  endfacet
  facet normal  -0.000000e+000  0.000000e+000  1.000000e+000
    outer loop
      vertex -1.381390e+001  4.134080e-001  2.000000e+000
      vertex -1.832092e+001  4.083956e-001  2.000000e+000
      vertex -1.349442e+001  1.999392e-001  2.000000e+000
    endloop
  endfacet
  facet normal  0.000000e+000  0.000000e+000  1.000000e+000
    outer loop
      vertex -1.349442e+001  1.999392e-001  2.000000e+000
      vertex -1.832092e+001  4.083956e-001  2.000000e+000
      vertex -1.806152e+001  3.397969e-002  2.000000e+000
    endloop
  endfacet
  facet normal  -0.000000e+000  0.000000e+000  1.000000e+000
    outer loop
      vertex -1.349442e+001  1.999392e-001  2.000000e+000
      vertex -1.806152e+001  3.397969e-002  2.000000e+000
      vertex -1.316347e+001  4.719560e-003  2.000000e+000
    endloop
  endfacet
  facet normal  0.000000e+000  0.000000e+000  1.000000e+000
    outer loop
      vertex -1.316347e+001  4.719560e-003  2.000000e+000
      vertex -1.806152e+001  3.397969e-002  2.000000e+000
      vertex -1.282210e+001 -1.716367e-001  2.000000e+000
    endloop
  endfacet
  facet normal  0.000000e+000  0.000000e+000  1.000000e+000
    outer loop
      vertex -1.282210e+001 -1.716367e-001  2.000000e+000
      vertex -1.806152e+001  3.397969e-002  2.000000e+000
      vertex -1.778559e+001 -3.284215e-001  2.000000e+000
    endloop
  endfacet
  facet normal  -0.000000e+000  0.000000e+000  1.000000e+000
    outer loop
      vertex -1.282210e+001 -1.716367e-001  2.000000e+000
      vertex -1.778559e+001 -3.284215e-001  2.000000e+000
      vertex -1.247138e+001 -3.285748e-001  2.000000e+000
    endloop
  endfacet
  facet normal  0.000000e+000  -0.000000e+000  1.000000e+000
    outer loop
      vertex -2.500000e+001 -6.000000e+000  6.000000e+000
      vertex  2.500000e+001 -6.000000e+000  6.000000e+000
      vertex  2.500000e+001 -4.150000e+000  6.000000e+000
    endloop
  endfacet
  facet normal  0.000000e+000  0.000000e+000  1.000000e+000
    outer loop
      vertex -2.500000e+001 -6.000000e+000  6.000000e+000
      vertex  2.500000e+001 -4.150000e+000  6.000000e+000
      vertex -9.850000e+000 -4.150000e+000  6.000000e+000
    endloop
  endfacet
  facet normal  0.000000e+000  0.000000e+000  9.999999e-001
    outer loop
      vertex -2.500000e+001 -6.000000e+000  6.000000e+000
      vertex -9.850000e+000 -4.150000e+000  6.000000e+000
      vertex -1.030538e+001 -4.139780e+000  6.000000e+000
    endloop
  endfacet
  facet normal  0.000000e+000  0.000000e+000  1.000000e+000
    outer loop
      vertex -2.500000e+001 -6.000000e+000  6.000000e+000
      vertex -1.030538e+001 -4.139780e+000  6.000000e+000
      vertex -1.075984e+001 -4.109139e+000  6.000000e+000
    endloop
  endfacet
  facet normal  0.000000e+000  0.000000e+000  1.000000e+000
    outer loop
      vertex -2.500000e+001 -6.000000e+000  6.000000e+000
      vertex -1.075984e+001 -4.109139e+000  6.000000e+000
      vertex -1.121247e+001 -4.058140e+000  6.000000e+000
    endloop
  endfacet
  facet normal  0.000000e+000  0.000000e+000  9.999999e-001
    outer loop
      vertex -2.500000e+001 -6.000000e+000  6.000000e+000
      vertex -1.121247e+001 -4.058140e+000  6.000000e+000
      vertex -1.166235e+001 -3.986885e+000  6.000000e+000
    endloop
  endfacet
  facet normal  0.000000e+000  0.000000e+000  1.000000e+000
    outer loop
      vertex -2.500000e+001 -6.000000e+000  6.000000e+000
      vertex -1.166235e+001 -3.986885e+000  6.000000e+000
      vertex -1.210859e+001 -3.895518e+000  6.000000e+000
    endloop
  endfacet
  facet normal  0.000000e+000  0.000000e+000  1.000000e+000
    outer loop
      vertex -2.500000e+001 -6.000000e+000  6.000000e+000
      vertex -1.210859e+001 -3.895518e+000  6.000000e+000
      vertex -1.255027e+001 -3.784223e+000  6.000000e+000
    endloop
  endfacet
  facet normal  0.000000e+000  0.000000e+000  1.000000e+000
    outer loop
      vertex -2.500000e+001 -6.000000e+000  6.000000e+000
      vertex -1.255027e+001 -3.784223e+000  6.000000e+000
      vertex -1.298652e+001 -3.653224e+000  6.000000e+000
    endloop
  endfacet
  facet normal  0.000000e+000  0.000000e+000  1.000000e+000
    outer loop
      vertex -2.500000e+001 -6.000000e+000  6.000000e+000
      vertex -1.298652e+001 -3.653224e+000  6.000000e+000
      vertex -1.341645e+001 -3.502784e+000  6.000000e+000
    endloop
  endfacet
  facet normal  0.000000e+000  0.000000e+000  1.000000e+000
    outer loop
      vertex -2.500000e+001 -6.000000e+000  6.000000e+000
      vertex -1.341645e+001 -3.502784e+000  6.000000e+000
      vertex -1.383920e+001 -3.333207e+000  6.000000e+000
    endloop
  endfacet
  facet normal  0.000000e+000  0.000000e+000  1.000000e+000
    outer loop
      vertex -2.500000e+001 -6.000000e+000  6.000000e+000
      vertex -1.383920e+001 -3.333207e+000  6.000000e+000
      vertex -1.425392e+001 -3.144834e+000  6.000000e+000
    endloop
  endfacet
  facet normal  0.000000e+000  0.000000e+000  1.000000e+000
    outer loop
      vertex -2.500000e+001 -6.000000e+000  6.000000e+000
      vertex -1.425392e+001 -3.144834e+000  6.000000e+000
      vertex -1.465977e+001 -2.938045e+000  6.000000e+000
    endloop
  endfacet
  facet normal  0.000000e+000  0.000000e+000  1.000000e+000
    outer loop
      vertex -2.500000e+001 -6.000000e+000  6.000000e+000
      vertex -1.465977e+001 -2.938045e+000  6.000000e+000
      vertex -1.505593e+001 -2.713255e+000  6.000000e+000
    endloop
  endfacet
  facet normal  0.000000e+000  0.000000e+000  1.000000e+000
    outer loop
      vertex -2.500000e+001 -6.000000e+000  6.000000e+000
      vertex -1.505593e+001 -2.713255e+000  6.000000e+000
      vertex -1.544160e+001 -2.470918e+000  6.000000e+000
    endloop
  endfacet
  facet normal  0.000000e+000  0.000000e+000  1.000000e+000
    outer loop
      vertex -2.500000e+001 -6.000000e+000  6.000000e+000
      vertex -1.544160e+001 -2.470918e+000  6.000000e+000
      vertex -1.581602e+001 -2.211523e+000  6.000000e+000
    endloop
  endfacet
  facet normal  0.000000e+000  0.000000e+000  1.000000e+000
    outer loop
      vertex -2.500000e+001 -6.000000e+000  6.000000e+000
      vertex -1.581602e+001 -2.211523e+000  6.000000e+000
      vertex -1.617842e+001 -1.935590e+000  6.000000e+000
    endloop
  endfacet
  facet normal  0.000000e+000  0.000000e+000  1.000000e+000
    outer loop
      vertex -2.500000e+001 -6.000000e+000  6.000000e+000
      vertex -1.617842e+001 -1.935590e+000  6.000000e+000
      vertex -1.652808e+001 -1.643675e+000  6.000000e+000
    endloop
  endfacet
  facet normal  0.000000e+000  0.000000e+000  1.000000e+000
    outer loop
      vertex -2.500000e+001 -6.000000e+000  6.000000e+000
      vertex -1.652808e+001 -1.643675e+000  6.000000e+000
      vertex -1.686429e+001 -1.336368e+000  6.000000e+000
    endloop
  endfacet
  facet normal  0.000000e+000  0.000000e+000  1.000000e+000
    outer loop
      vertex -2.500000e+001 -6.000000e+000  6.000000e+000
      vertex -1.686429e+001 -1.336368e+000  6.000000e+000
      vertex -1.718637e+001 -1.014286e+000  6.000000e+000
    endloop
  endfacet
  facet normal  0.000000e+000  0.000000e+000  1.000000e+000
    outer loop
      vertex -2.500000e+001 -6.000000e+000  6.000000e+000
      vertex -1.718637e+001 -1.014286e+000  6.000000e+000
      vertex -1.749368e+001 -6.780781e-001  6.000000e+000
    endloop
  endfacet
  facet normal  0.000000e+000  0.000000e+000  1.000000e+000
    outer loop
      vertex -2.500000e+001 -6.000000e+000  6.000000e+000
      vertex -1.749368e+001 -6.780781e-001  6.000000e+000
      vertex -1.778559e+001 -3.284215e-001  6.000000e+000
    endloop
  endfacet
  facet normal  0.000000e+000  0.000000e+000  1.000000e+000
    outer loop
      vertex -2.500000e+001 -6.000000e+000  6.000000e+000
      vertex -1.778559e+001 -3.284215e-001  6.000000e+000
      vertex -1.806152e+001  3.397969e-002  6.000000e+000
    endloop
  endfacet
  facet normal  0.000000e+000  0.000000e+000  1.000000e+000
    outer loop
      vertex -2.500000e+001 -6.000000e+000  6.000000e+000
      vertex -1.806152e+001  3.397969e-002  6.000000e+000
      vertex -1.832092e+001  4.083956e-001  6.000000e+000
    endloop
  endfacet
  facet normal  0.000000e+000  0.000000e+000  1.000000e+000
    outer loop
      vertex -2.500000e+001 -6.000000e+000  6.000000e+000
      vertex -1.832092e+001  4.083956e-001  6.000000e+000
      vertex -1.856326e+001  7.940723e-001  6.000000e+000
    endloop
  endfacet
  facet normal  0.000000e+000  0.000000e+000  1.000000e+000
    outer loop
      vertex -2.500000e+001 -6.000000e+000  6.000000e+000
      vertex -1.856326e+001  7.940723e-001  6.000000e+000
      vertex -1.878804e+001  1.190233e+000  6.000000e+000
    endloop
  endfacet
  facet normal  0.000000e+000  0.000000e+000  1.000000e+000
    outer loop
      vertex -2.500000e+001 -6.000000e+000  6.000000e+000
      vertex -1.878804e+001  1.190233e+000  6.000000e+000
      vertex -1.899483e+001  1.596080e+000  6.000000e+000
    endloop
  endfacet
  facet normal  0.000000e+000  0.000000e+000  1.000000e+000
    outer loop
      vertex -2.500000e+001 -6.000000e+000  6.000000e+000
      vertex -1.899483e+001  1.596080e+000  6.000000e+000
      vertex -1.918321e+001  2.010796e+000  6.000000e+000
    endloop
  endfacet
  facet normal  0.000000e+000  0.000000e+000  1.000000e+000
    outer loop
      vertex -2.500000e+001 -6.000000e+000  6.000000e+000
      vertex -1.918321e+001  2.010796e+000  6.000000e+000
      vertex -1.935278e+001  2.433546e+000  6.000000e+000
    endloop
  endfacet
  facet normal  0.000000e+000  0.000000e+000  1.000000e+000
    outer loop
      vertex -2.500000e+001 -6.000000e+000  6.000000e+000
      vertex -1.935278e+001  2.433546e+000  6.000000e+000
      vertex -1.950322e+001  2.863477e+000  6.000000e+000
    endloop
  endfacet
  facet normal  0.000000e+000  0.000000e+000  9.999999e-001
    outer loop
      vertex -2.500000e+001 -6.000000e+000  6.000000e+000
      vertex -1.950322e+001  2.863477e+000  6.000000e+000
      vertex -1.963422e+001  3.299726e+000  6.000000e+000
    endloop
  endfacet
  facet normal  0.000000e+000  0.000000e+000  1.000000e+000
    outer loop
      vertex -2.500000e+001 -6.000000e+000  6.000000e+000
      vertex -1.963422e+001  3.299726e+000  6.000000e+000
      vertex -1.974552e+001  3.741412e+000  6.000000e+000
    endloop
  endfacet
  facet normal  0.000000e+000  0.000000e+000  1.000000e+000
    outer loop
      vertex -2.500000e+001 -6.000000e+000  6.000000e+000
      vertex -1.974552e+001  3.741412e+000  6.000000e+000
      vertex -1.983689e+001  4.187647e+000  6.000000e+000
    endloop
  endfacet
  facet normal  0.000000e+000  0.000000e+000  1.000000e+000
    outer loop
      vertex -2.500000e+001 -6.000000e+000  6.000000e+000
      vertex -1.983689e+001  4.187647e+000  6.000000e+000
      vertex -1.990814e+001  4.637532e+000  6.000000e+000
    endloop
  endfacet
  facet normal  0.000000e+000  0.000000e+000  1.000000e+000
    outer loop
      vertex -2.500000e+001 -6.000000e+000  6.000000e+000
      vertex -1.990814e+001  4.637532e+000  6.000000e+000
      vertex -1.995914e+001  5.090161e+000  6.000000e+000
    endloop
  endfacet
  facet normal  0.000000e+000  0.000000e+000  1.000000e+000
    outer loop
      vertex -2.500000e+001 -6.000000e+000  6.000000e+000
      vertex -1.995914e+001  5.090161e+000  6.000000e+000
      vertex -1.998978e+001  5.544622e+000  6.000000e+000
    endloop
  endfacet
  facet normal  0.000000e+000  0.000000e+000  1.000000e+000
    outer loop
      vertex -2.500000e+001 -6.000000e+000  6.000000e+000
      vertex -1.998978e+001  5.544622e+000  6.000000e+000
      vertex -2.000000e+001  6.000000e+000  6.000000e+000
    endloop
  endfacet
  facet normal  0.000000e+000  0.000000e+000  1.000000e+000
    outer loop
      vertex -2.500000e+001 -6.000000e+000  6.000000e+000
      vertex -2.000000e+001  6.000000e+000  6.000000e+000
      vertex -2.500000e+001  6.000000e+000  6.000000e+000
    endloop
  endfacet
  facet normal -1.000000e+000  -0.000000e+000  0.000000e+000
    outer loop
      vertex -2.500000e+001 -6.000000e+000  6.000000e+000
      vertex -2.500000e+001  6.000000e+000  6.000000e+000
      vertex -2.500000e+001 -6.000000e+000  0.000000e+000
    endloop
  endfacet
  facet normal -1.000000e+000  0.000000e+000  0.000000e+000
    outer loop
      vertex -2.500000e+001 -6.000000e+000  0.000000e+000
      vertex -2.500000e+001  6.000000e+000  6.000000e+000
      vertex -2.500000e+001  6.000000e+000  0.000000e+000
    endloop
  endfacet
  facet normal  0.000000e+000 -1.000000e+000  0.000000e+000
    outer loop
      vertex  2.500000e+001 -6.000000e+000  6.000000e+000
      vertex -2.500000e+001 -6.000000e+000  6.000000e+000
      vertex  2.500000e+001 -6.000000e+000  0.000000e+000
    endloop
  endfacet
  facet normal  0.000000e+000 -1.000000e+000  0.000000e+000
    outer loop
      vertex  2.500000e+001 -6.000000e+000  0.000000e+000
      vertex -2.500000e+001 -6.000000e+000  6.000000e+000
      vertex -2.500000e+001 -6.000000e+000  0.000000e+000
    endloop
  endfacet
  facet normal  0.000000e+000  1.000000e+000  -0.000000e+000
    outer loop
      vertex  2.500000e+001 -4.150000e+000  6.000000e+000
      vertex  2.500000e+001 -4.150000e+000  2.000000e+000
      vertex -9.850000e+000 -4.150000e+000  6.000000e+000
    endloop
  endfacet
  facet normal  0.000000e+000  1.000000e+000  0.000000e+000
    outer loop
      vertex -9.850000e+000 -4.150000e+000  6.000000e+000
      vertex  2.500000e+001 -4.150000e+000  2.000000e+000
      vertex -9.850000e+000 -4.150000e+000  2.000000e+000
    endloop
  endfacet
  facet normal  6.746700e-001  7.381196e-001  0.000000e+000
    outer loop
      vertex -1.686429e+001 -1.336368e+000  2.000000e+000
      vertex -1.652808e+001 -1.643675e+000  6.000000e+000
      vertex -1.652808e+001 -1.643675e+000  2.000000e+000
    endloop
  endfacet
  facet normal  6.408752e-001  7.676451e-001  -0.000000e+000
    outer loop
      vertex -1.652808e+001 -1.643675e+000  2.000000e+000
      vertex -1.652808e+001 -1.643675e+000  6.000000e+000
      vertex -1.617842e+001 -1.935590e+000  6.000000e+000
    endloop
  endfacet
  facet normal  6.408752e-001  7.676451e-001  0.000000e+000
    outer loop
      vertex -1.652808e+001 -1.643675e+000  2.000000e+000
      vertex -1.617842e+001 -1.935590e+000  6.000000e+000
      vertex -1.617842e+001 -1.935590e+000  2.000000e+000
    endloop
  endfacet
  facet normal  6.057903e-001  7.956243e-001  -0.000000e+000
    outer loop
      vertex -1.617842e+001 -1.935590e+000  2.000000e+000
      vertex -1.617842e+001 -1.935590e+000  6.000000e+000
      vertex -1.581602e+001 -2.211523e+000  6.000000e+000
    endloop
  endfacet
  facet normal  6.057903e-001  7.956243e-001  0.000000e+000
    outer loop
      vertex -1.617842e+001 -1.935590e+000  2.000000e+000
      vertex -1.581602e+001 -2.211523e+000  6.000000e+000
      vertex -1.581602e+001 -2.211523e+000  2.000000e+000
    endloop
  endfacet
  facet normal  5.694848e-001  8.220019e-001  -0.000000e+000
    outer loop
      vertex -1.581602e+001 -2.211523e+000  2.000000e+000
      vertex -1.581602e+001 -2.211523e+000  6.000000e+000
      vertex -1.544160e+001 -2.470918e+000  6.000000e+000
    endloop
  endfacet
  facet normal  5.694848e-001  8.220019e-001  0.000000e+000
    outer loop
      vertex -1.581602e+001 -2.211523e+000  2.000000e+000
      vertex -1.544160e+001 -2.470918e+000  6.000000e+000
      vertex -1.544160e+001 -2.470918e+000  2.000000e+000
    endloop
  endfacet
  facet normal  5.320315e-001  8.467246e-001  -0.000000e+000
    outer loop
      vertex -1.544160e+001 -2.470918e+000  2.000000e+000
      vertex -1.544160e+001 -2.470918e+000  6.000000e+000
      vertex -1.505593e+001 -2.713255e+000  6.000000e+000
    endloop
  endfacet
  facet normal  5.320315e-001  8.467246e-001  0.000000e+000
    outer loop
      vertex -1.544160e+001 -2.470918e+000  2.000000e+000
      vertex -1.505593e+001 -2.713255e+000  6.000000e+000
      vertex -1.505593e+001 -2.713255e+000  2.000000e+000
    endloop
  endfacet
  facet normal  4.935088e-001  8.697408e-001  -0.000000e+000
    outer loop
      vertex -1.505593e+001 -2.713255e+000  2.000000e+000
      vertex -1.505593e+001 -2.713255e+000  6.000000e+000
      vertex -1.465977e+001 -2.938045e+000  6.000000e+000
    endloop
  endfacet
  facet normal  4.935088e-001  8.697408e-001  0.000000e+000
    outer loop
      vertex -1.505593e+001 -2.713255e+000  2.000000e+000
      vertex -1.465977e+001 -2.938045e+000  6.000000e+000
      vertex -1.465977e+001 -2.938045e+000  2.000000e+000
    endloop
  endfacet
  facet normal  4.539903e-001  8.910067e-001  -0.000000e+000
    outer loop
      vertex -1.465977e+001 -2.938045e+000  2.000000e+000
      vertex -1.465977e+001 -2.938045e+000  6.000000e+000
      vertex -1.425392e+001 -3.144834e+000  6.000000e+000
    endloop
  endfacet
  facet normal  4.539903e-001  8.910067e-001  0.000000e+000
    outer loop
      vertex -1.465977e+001 -2.938045e+000  2.000000e+000
      vertex -1.425392e+001 -3.144834e+000  6.000000e+000
      vertex -1.425392e+001 -3.144834e+000  2.000000e+000
    endloop
  endfacet
  facet normal  4.135586e-001  9.104776e-001  -0.000000e+000
    outer loop
      vertex -1.425392e+001 -3.144834e+000  2.000000e+000
      vertex -1.425392e+001 -3.144834e+000  6.000000e+000
      vertex -1.383920e+001 -3.333207e+000  6.000000e+000
    endloop
  endfacet
  facet normal  4.135586e-001  9.104776e-001  0.000000e+000
    outer loop
      vertex -1.425392e+001 -3.144834e+000  2.000000e+000
      vertex -1.383920e+001 -3.333207e+000  6.000000e+000
      vertex -1.383920e+001 -3.333207e+000  2.000000e+000
    endloop
  endfacet
  facet normal  3.722939e-001  9.281149e-001  -0.000000e+000
    outer loop
      vertex -1.383920e+001 -3.333207e+000  2.000000e+000
      vertex -1.383920e+001 -3.333207e+000  6.000000e+000
      vertex -1.341645e+001 -3.502784e+000  6.000000e+000
    endloop
  endfacet
  facet normal  3.722939e-001  9.281149e-001  0.000000e+000
    outer loop
      vertex -1.383920e+001 -3.333207e+000  2.000000e+000
      vertex -1.341645e+001 -3.502784e+000  6.000000e+000
      vertex -1.341645e+001 -3.502784e+000  2.000000e+000
    endloop
  endfacet
  facet normal  3.302794e-001  9.438832e-001  -0.000000e+000
    outer loop
      vertex -1.341645e+001 -3.502784e+000  2.000000e+000
      vertex -1.341645e+001 -3.502784e+000  6.000000e+000
      vertex -1.298652e+001 -3.653224e+000  6.000000e+000
    endloop
  endfacet
  facet normal  3.302794e-001  9.438832e-001  0.000000e+000
    outer loop
      vertex -1.341645e+001 -3.502784e+000  2.000000e+000
      vertex -1.298652e+001 -3.653224e+000  6.000000e+000
      vertex -1.298652e+001 -3.653224e+000  2.000000e+000
    endloop
  endfacet
  facet normal  2.875990e-001  9.577509e-001  -0.000000e+000
    outer loop
      vertex -1.298652e+001 -3.653224e+000  2.000000e+000
      vertex -1.298652e+001 -3.653224e+000  6.000000e+000
      vertex -1.255027e+001 -3.784223e+000  6.000000e+000
    endloop
  endfacet
  facet normal  2.875990e-001  9.577509e-001  0.000000e+000
    outer loop
      vertex -1.298652e+001 -3.653224e+000  2.000000e+000
      vertex -1.255027e+001 -3.784223e+000  6.000000e+000
      vertex -1.255027e+001 -3.784223e+000  2.000000e+000
    endloop
  endfacet
  facet normal  2.443402e-001  9.696895e-001  -0.000000e+000
    outer loop
      vertex -1.255027e+001 -3.784223e+000  2.000000e+000
      vertex -1.255027e+001 -3.784223e+000  6.000000e+000
      vertex -1.210859e+001 -3.895518e+000  6.000000e+000
    endloop
  endfacet
  facet normal  2.443402e-001  9.696895e-001  0.000000e+000
    outer loop
      vertex -1.255027e+001 -3.784223e+000  2.000000e+000
      vertex -1.210859e+001 -3.895518e+000  6.000000e+000
      vertex -1.210859e+001 -3.895518e+000  2.000000e+000
    endloop
  endfacet
  facet normal  2.005895e-001  9.796754e-001  -0.000000e+000
    outer loop
      vertex -1.210859e+001 -3.895518e+000  2.000000e+000
      vertex -1.210859e+001 -3.895518e+000  6.000000e+000
      vertex -1.166235e+001 -3.986885e+000  6.000000e+000
    endloop
  endfacet
  facet normal  2.005895e-001  9.796754e-001  0.000000e+000
    outer loop
      vertex -1.210859e+001 -3.895518e+000  2.000000e+000
      vertex -1.166235e+001 -3.986885e+000  6.000000e+000
      vertex -1.166235e+001 -3.986885e+000  2.000000e+000
    endloop
  endfacet
  facet normal  1.564347e-001  9.876883e-001  -0.000000e+000
    outer loop
      vertex -1.166235e+001 -3.986885e+000  2.000000e+000
      vertex -1.166235e+001 -3.986885e+000  6.000000e+000
      vertex -1.121247e+001 -4.058140e+000  6.000000e+000
    endloop
  endfacet
  facet normal  1.564347e-001  9.876883e-001  0.000000e+000
    outer loop
      vertex -1.166235e+001 -3.986885e+000  2.000000e+000
      vertex -1.121247e+001 -4.058140e+000  6.000000e+000
      vertex -1.121247e+001 -4.058140e+000  2.000000e+000
    endloop
  endfacet
  facet normal  1.119639e-001  9.937123e-001  -0.000000e+000
    outer loop
      vertex -1.121247e+001 -4.058140e+000  2.000000e+000
      vertex -1.121247e+001 -4.058140e+000  6.000000e+000
      vertex -1.075984e+001 -4.109139e+000  6.000000e+000
    endloop
  endfacet
  facet normal  1.119639e-001  9.937123e-001  0.000000e+000
    outer loop
      vertex -1.121247e+001 -4.058140e+000  2.000000e+000
      vertex -1.075984e+001 -4.109139e+000  6.000000e+000
      vertex -1.075984e+001 -4.109139e+000  2.000000e+000
    endloop
  endfacet
  facet normal  6.726912e-002  9.977348e-001  -0.000000e+000
    outer loop
      vertex -1.075984e+001 -4.109139e+000  2.000000e+000
      vertex -1.075984e+001 -4.109139e+000  6.000000e+000
      vertex -1.030538e+001 -4.139780e+000  6.000000e+000
    endloop
  endfacet
  facet normal  6.726912e-002  9.977348e-001  0.000000e+000
    outer loop
      vertex -1.075984e+001 -4.109139e+000  2.000000e+000
      vertex -1.030538e+001 -4.139780e+000  6.000000e+000
      vertex -1.030538e+001 -4.139780e+000  2.000000e+000
    endloop
  endfacet
  facet normal  2.243842e-002  9.997482e-001  -0.000000e+000
    outer loop
      vertex -1.030538e+001 -4.139780e+000  2.000000e+000
      vertex -1.030538e+001 -4.139780e+000  6.000000e+000
      vertex -9.850000e+000 -4.150000e+000  6.000000e+000
    endloop
  endfacet
  facet normal  2.243842e-002  9.997482e-001  0.000000e+000
    outer loop
      vertex -1.030538e+001 -4.139780e+000  2.000000e+000
      vertex -9.850000e+000 -4.150000e+000  6.000000e+000
      vertex -9.850000e+000 -4.150000e+000  2.000000e+000
    endloop
  endfacet
  facet normal  6.746700e-001  7.381196e-001  -0.000000e+000
    outer loop
      vertex -1.652808e+001 -1.643675e+000  6.000000e+000
      vertex -1.686429e+001 -1.336368e+000  2.000000e+000
      vertex -1.686429e+001 -1.336368e+000  6.000000e+000
    endloop
  endfacet
  facet normal  7.071083e-001  7.071054e-001  0.000000e+000
    outer loop
      vertex -1.686429e+001 -1.336368e+000  6.000000e+000
      vertex -1.686429e+001 -1.336368e+000  2.000000e+000
      vertex -1.718637e+001 -1.014286e+000  2.000000e+000
    endloop
  endfacet
  facet normal  7.071083e-001  7.071054e-001  -0.000000e+000
    outer loop
      vertex -1.686429e+001 -1.336368e+000  6.000000e+000
      vertex -1.718637e+001 -1.014286e+000  2.000000e+000
      vertex -1.718637e+001 -1.014286e+000  6.000000e+000
    endloop
  endfacet
  facet normal  7.381183e-001  6.746713e-001  0.000000e+000
    outer loop
      vertex -1.718637e+001 -1.014286e+000  6.000000e+000
      vertex -1.718637e+001 -1.014286e+000  2.000000e+000
      vertex -1.749368e+001 -6.780781e-001  2.000000e+000
    endloop
  endfacet
  facet normal  7.381183e-001  6.746713e-001  -0.000000e+000
    outer loop
      vertex -1.718637e+001 -1.014286e+000  6.000000e+000
      vertex -1.749368e+001 -6.780781e-001  2.000000e+000
      vertex -1.749368e+001 -6.780781e-001  6.000000e+000
    endloop
  endfacet
  facet normal  7.676449e-001  6.408754e-001  0.000000e+000
    outer loop
      vertex -1.749368e+001 -6.780781e-001  6.000000e+000
      vertex -1.749368e+001 -6.780781e-001  2.000000e+000
      vertex -1.778559e+001 -3.284215e-001  2.000000e+000
    endloop
  endfacet
  facet normal  7.676449e-001  6.408754e-001  -0.000000e+000
    outer loop
      vertex -1.749368e+001 -6.780781e-001  6.000000e+000
      vertex -1.778559e+001 -3.284215e-001  2.000000e+000
      vertex -1.778559e+001 -3.284215e-001  6.000000e+000
    endloop
  endfacet
  facet normal  7.956232e-001  6.057919e-001  0.000000e+000
    outer loop
      vertex -1.778559e+001 -3.284215e-001  6.000000e+000
      vertex -1.778559e+001 -3.284215e-001  2.000000e+000
      vertex -1.806152e+001  3.397969e-002  2.000000e+000
    endloop
  endfacet
  facet normal  7.956232e-001  6.057919e-001  -0.000000e+000
    outer loop
      vertex -1.778559e+001 -3.284215e-001  6.000000e+000
      vertex -1.806152e+001  3.397969e-002  2.000000e+000
      vertex -1.806152e+001  3.397969e-002  6.000000e+000
    endloop
  endfacet
  facet normal  8.220025e-001  5.694838e-001  0.000000e+000
    outer loop
      vertex -1.806152e+001  3.397969e-002  6.000000e+000
      vertex -1.806152e+001  3.397969e-002  2.000000e+000
      vertex -1.832092e+001  4.083956e-001  2.000000e+000
    endloop
  endfacet
  facet normal  8.220025e-001  5.694838e-001  -0.000000e+000
    outer loop
      vertex -1.806152e+001  3.397969e-002  6.000000e+000
      vertex -1.832092e+001  4.083956e-001  2.000000e+000
      vertex -1.832092e+001  4.083956e-001  6.000000e+000
    endloop
  endfacet
  facet normal  8.467247e-001  5.320314e-001  0.000000e+000
    outer loop
      vertex -1.832092e+001  4.083956e-001  6.000000e+000
      vertex -1.832092e+001  4.083956e-001  2.000000e+000
      vertex -1.856326e+001  7.940723e-001  2.000000e+000
    endloop
  endfacet
  facet normal  8.467247e-001  5.320314e-001  -0.000000e+000
    outer loop
      vertex -1.832092e+001  4.083956e-001  6.000000e+000
      vertex -1.856326e+001  7.940723e-001  2.000000e+000
      vertex -1.856326e+001  7.940723e-001  6.000000e+000
    endloop
  endfacet
  facet normal  8.697419e-001  4.935070e-001  0.000000e+000
    outer loop
      vertex -1.856326e+001  7.940723e-001  6.000000e+000
      vertex -1.856326e+001  7.940723e-001  2.000000e+000
      vertex -1.878804e+001  1.190233e+000  2.000000e+000
    endloop
  endfacet
  facet normal  8.697419e-001  4.935070e-001  -0.000000e+000
    outer loop
      vertex -1.856326e+001  7.940723e-001  6.000000e+000
      vertex -1.878804e+001  1.190233e+000  2.000000e+000
      vertex -1.878804e+001  1.190233e+000  6.000000e+000
    endloop
  endfacet
  facet normal  8.910051e-001  4.539932e-001  0.000000e+000
    outer loop
      vertex -1.878804e+001  1.190233e+000  6.000000e+000
      vertex -1.878804e+001  1.190233e+000  2.000000e+000
      vertex -1.899483e+001  1.596080e+000  2.000000e+000
    endloop
  endfacet
  facet normal  8.910051e-001  4.539932e-001  -0.000000e+000
    outer loop
      vertex -1.878804e+001  1.190233e+000  6.000000e+000
      vertex -1.899483e+001  1.596080e+000  2.000000e+000
      vertex -1.899483e+001  1.596080e+000  6.000000e+000
    endloop
  endfacet
  facet normal  9.104785e-001  4.135563e-001  0.000000e+000
    outer loop
      vertex -1.899483e+001  1.596080e+000  6.000000e+000
      vertex -1.899483e+001  1.596080e+000  2.000000e+000
      vertex -1.918321e+001  2.010796e+000  2.000000e+000
    endloop
  endfacet
  facet normal  9.104785e-001  4.135563e-001  -0.000000e+000
    outer loop
      vertex -1.899483e+001  1.596080e+000  6.000000e+000
      vertex -1.918321e+001  2.010796e+000  2.000000e+000
      vertex -1.918321e+001  2.010796e+000  6.000000e+000
    endloop
  endfacet
  facet normal  9.281153e-001  3.722928e-001  0.000000e+000
    outer loop
      vertex -1.918321e+001  2.010796e+000  6.000000e+000
      vertex -1.918321e+001  2.010796e+000  2.000000e+000
      vertex -1.935278e+001  2.433546e+000  2.000000e+000
    endloop
  endfacet
  facet normal  9.281153e-001  3.722928e-001  -0.000000e+000
    outer loop
      vertex -1.918321e+001  2.010796e+000  6.000000e+000
      vertex -1.935278e+001  2.433546e+000  2.000000e+000
      vertex -1.935278e+001  2.433546e+000  6.000000e+000
    endloop
  endfacet
  facet normal  9.438829e-001  3.302801e-001  0.000000e+000
    outer loop
      vertex -1.935278e+001  2.433546e+000  6.000000e+000
      vertex -1.935278e+001  2.433546e+000  2.000000e+000
      vertex -1.950322e+001  2.863477e+000  2.000000e+000
    endloop
  endfacet
  facet normal  9.438829e-001  3.302801e-001  -0.000000e+000
    outer loop
      vertex -1.935278e+001  2.433546e+000  6.000000e+000
      vertex -1.950322e+001  2.863477e+000  2.000000e+000
      vertex -1.950322e+001  2.863477e+000  6.000000e+000
    endloop
  endfacet
  facet normal  9.577501e-001  2.876016e-001  0.000000e+000
    outer loop
      vertex -1.950322e+001  2.863477e+000  6.000000e+000
      vertex -1.950322e+001  2.863477e+000  2.000000e+000
      vertex -1.963422e+001  3.299726e+000  2.000000e+000
    endloop
  endfacet
  facet normal  9.577501e-001  2.876016e-001  -0.000000e+000
    outer loop
      vertex -1.950322e+001  2.863477e+000  6.000000e+000
      vertex -1.963422e+001  3.299726e+000  2.000000e+000
      vertex -1.963422e+001  3.299726e+000  6.000000e+000
    endloop
  endfacet
  facet normal  9.696903e-001  2.443374e-001  0.000000e+000
    outer loop
      vertex -1.963422e+001  3.299726e+000  6.000000e+000
      vertex -1.963422e+001  3.299726e+000  2.000000e+000
      vertex -1.974552e+001  3.741412e+000  2.000000e+000
    endloop
  endfacet
  facet normal  9.696903e-001  2.443374e-001  -0.000000e+000
    outer loop
      vertex -1.963422e+001  3.299726e+000  6.000000e+000
      vertex -1.974552e+001  3.741412e+000  2.000000e+000
      vertex -1.974552e+001  3.741412e+000  6.000000e+000
    endloop
  endfacet
  facet normal  9.796751e-001  2.005909e-001  0.000000e+000
    outer loop
      vertex -1.974552e+001  3.741412e+000  6.000000e+000
      vertex -1.974552e+001  3.741412e+000  2.000000e+000
      vertex -1.983689e+001  4.187647e+000  2.000000e+000
    endloop
  endfacet
  facet normal  9.796751e-001  2.005909e-001  -0.000000e+000
    outer loop
      vertex -1.974552e+001  3.741412e+000  6.000000e+000
      vertex -1.983689e+001  4.187647e+000  2.000000e+000
      vertex -1.983689e+001  4.187647e+000  6.000000e+000
    endloop
  endfacet
  facet normal  9.876884e-001  1.564344e-001  0.000000e+000
    outer loop
      vertex -1.983689e+001  4.187647e+000  6.000000e+000
      vertex -1.983689e+001  4.187647e+000  2.000000e+000
      vertex -1.990814e+001  4.637532e+000  2.000000e+000
    endloop
  endfacet
  facet normal  9.876884e-001  1.564344e-001  -0.000000e+000
    outer loop
      vertex -1.983689e+001  4.187647e+000  6.000000e+000
      vertex -1.990814e+001  4.637532e+000  2.000000e+000
      vertex -1.990814e+001  4.637532e+000  6.000000e+000
    endloop
  endfacet
  facet normal  9.937123e-001  1.119638e-001  0.000000e+000
    outer loop
      vertex -1.990814e+001  4.637532e+000  6.000000e+000
      vertex -1.990814e+001  4.637532e+000  2.000000e+000
      vertex -1.995914e+001  5.090161e+000  2.000000e+000
    endloop
  endfacet
  facet normal  9.937123e-001  1.119638e-001  -0.000000e+000
    outer loop
      vertex -1.990814e+001  4.637532e+000  6.000000e+000
      vertex -1.995914e+001  5.090161e+000  2.000000e+000
      vertex -1.995914e+001  5.090161e+000  6.000000e+000
    endloop
  endfacet
  facet normal  9.977347e-001  6.727120e-002  0.000000e+000
    outer loop
      vertex -1.995914e+001  5.090161e+000  6.000000e+000
      vertex -1.995914e+001  5.090161e+000  2.000000e+000
      vertex -1.998978e+001  5.544622e+000  2.000000e+000
    endloop
  endfacet
  facet normal  9.977347e-001  6.727120e-002  -0.000000e+000
    outer loop
      vertex -1.995914e+001  5.090161e+000  6.000000e+000
      vertex -1.998978e+001  5.544622e+000  2.000000e+000
      vertex -1.998978e+001  5.544622e+000  6.000000e+000
    endloop
  endfacet
  facet normal  9.997483e-001  2.243631e-002  0.000000e+000
    outer loop
      vertex -1.998978e+001  5.544622e+000  6.000000e+000
      vertex -1.998978e+001  5.544622e+000  2.000000e+000
      vertex -2.000000e+001  6.000000e+000  2.000000e+000
    endloop
  endfacet
  facet normal  9.997483e-001  2.243631e-002  -0.000000e+000
    outer loop
      vertex -1.998978e+001  5.544622e+000  6.000000e+000
      vertex -2.000000e+001  6.000000e+000  2.000000e+000
      vertex -2.000000e+001  6.000000e+000  6.000000e+000
    endloop
  endfacet
endsolid CATIA STL
